<svg id="visual" viewBox="0 0 540 960" width="540" height="960" xmlns="http://www.w3.org/2000/svg" xmlns:xlink="http://www.w3.org/1999/xlink" version="1.1"><rect x="0" y="0" width="540" height="960" fill="#92732c"></rect><defs><linearGradient id="grad1_0" x1="0%" y1="0%" x2="100%" y2="100%"><stop offset="30%" stop-color="#92732c" stop-opacity="1"></stop><stop offset="70%" stop-color="#92732c" stop-opacity="1"></stop></linearGradient></defs><defs><linearGradient id="grad2_0" x1="0%" y1="0%" x2="100%" y2="100%"><stop offset="30%" stop-color="#92732c" stop-opacity="1"></stop><stop offset="70%" stop-color="#92732c" stop-opacity="1"></stop></linearGradient></defs><g transform="translate(540, 0)"><path d="M0 540C-71 524.9 -142 509.7 -197.1 475.8C-252.2 441.9 -291.4 389.1 -344.4 344.4C-397.3 299.6 -464 262.7 -498.9 206.6C-533.8 150.6 -536.9 75.3 -540 0L0 0Z" fill="#001220"></path></g><g transform="translate(0, 960)"><path d="M0 -540C73.4 -534.8 146.9 -529.6 206.6 -498.9C266.4 -468.1 312.6 -411.8 359.9 -359.9C407.2 -308 455.8 -260.5 486 -201.3C516.2 -142 528.1 -71 540 0L0 0Z" fill="#001220"></path></g></svg>