<svg id="visual" viewBox="0 0 540 960" width="540" height="960" xmlns="http://www.w3.org/2000/svg" xmlns:xlink="http://www.w3.org/1999/xlink" version="1.1"><rect x="0" y="0" width="540" height="960" fill="#92732c"></rect><defs><linearGradient id="grad1_0" x1="0%" y1="100%" x2="100%" y2="0%"><stop offset="30%" stop-color="#92732c" stop-opacity="1"></stop><stop offset="70%" stop-color="#92732c" stop-opacity="1"></stop></linearGradient></defs><defs><linearGradient id="grad2_0" x1="0%" y1="100%" x2="100%" y2="0%"><stop offset="30%" stop-color="#92732c" stop-opacity="1"></stop><stop offset="70%" stop-color="#92732c" stop-opacity="1"></stop></linearGradient></defs><g transform="translate(540, 960)"><path d="M-513 0C-463.4 -54.9 -413.8 -109.8 -379.7 -157.3C-345.6 -204.8 -327.1 -244.8 -302.6 -302.6C-278.2 -360.4 -247.7 -435.9 -196.3 -474C-144.9 -512 -72.4 -512.5 0 -513L0 0Z" fill="#001220"></path></g><g transform="translate(0, 0)"><path d="M513 0C510.8 71.9 508.6 143.7 474 196.3C439.3 248.9 372 282.2 319.6 319.6C267.2 357 229.5 398.5 178.7 431.5C127.9 464.4 64 488.7 0 513L0 0Z" fill="#001220"></path></g></svg>