<svg id="visual" viewBox="0 0 540 960" width="540" height="960" xmlns="http://www.w3.org/2000/svg" xmlns:xlink="http://www.w3.org/1999/xlink" version="1.1"><rect x="0" y="0" width="540" height="960" fill="#92732c"></rect><defs><linearGradient id="grad1_0" x1="0%" y1="0%" x2="100%" y2="100%"><stop offset="30%" stop-color="#92732c" stop-opacity="1"></stop><stop offset="70%" stop-color="#92732c" stop-opacity="1"></stop></linearGradient></defs><defs><linearGradient id="grad2_0" x1="0%" y1="0%" x2="100%" y2="100%"><stop offset="30%" stop-color="#92732c" stop-opacity="1"></stop><stop offset="70%" stop-color="#92732c" stop-opacity="1"></stop></linearGradient></defs><g transform="translate(540, 0)"><path d="M0 513C-73.8 503.8 -147.6 494.5 -185.6 448.1C-223.6 401.7 -225.8 318 -276.5 276.5C-327.2 234.9 -426.4 235.4 -474 196.3C-521.5 157.2 -517.2 78.6 -513 0L0 0Z" fill="#001220"></path></g><g transform="translate(0, 960)"><path d="M0 -513C72.8 -512.9 145.6 -512.8 196.3 -474C247.1 -435.1 275.8 -357.4 299.1 -299.1C322.4 -240.8 340.3 -202 375.1 -155.4C409.8 -108.8 461.4 -54.4 513 0L0 0Z" fill="#001220"></path></g></svg>