<svg id="visual" viewBox="0 0 540 960" width="540" height="960" xmlns="http://www.w3.org/2000/svg" xmlns:xlink="http://www.w3.org/1999/xlink" version="1.1"><rect x="0" y="0" width="540" height="960" fill="#92732c"></rect><defs><linearGradient id="grad1_0" x1="0%" y1="100%" x2="100%" y2="0%"><stop offset="30%" stop-color="#92732c" stop-opacity="1"></stop><stop offset="70%" stop-color="#92732c" stop-opacity="1"></stop></linearGradient></defs><defs><linearGradient id="grad2_0" x1="0%" y1="100%" x2="100%" y2="0%"><stop offset="30%" stop-color="#92732c" stop-opacity="1"></stop><stop offset="70%" stop-color="#92732c" stop-opacity="1"></stop></linearGradient></defs><g transform="translate(540, 960)"><path d="M-540 0C-534.3 -73 -528.7 -146 -498.9 -206.6C-469.1 -267.3 -415.2 -315.7 -363.5 -363.5C-311.7 -411.2 -262.3 -458.5 -202.1 -487.8C-141.9 -517.1 -70.9 -528.6 0 -540L0 0Z" fill="#001220"></path></g><g transform="translate(0, 0)"><path d="M540 0C518.4 64.9 496.7 129.7 474 196.3C451.2 262.9 427.2 331.2 381.8 381.8C336.5 432.4 269.7 465.3 202.4 488.7C135.2 512.1 67.6 526.1 0 540L0 0Z" fill="#001220"></path></g></svg>