{
    "asset" : {
        "generator" : "Khronos glTF Blender I/O v3.2.43",
        "version" : "2.0"
    },
    "scene" : 0,
    "scenes" : [
        {
            "name" : "Scene",
            "nodes" : [
                0
            ]
        }
    ],
    "nodes" : [
        {
            "mesh" : 0,
            "name" : "CameraCurve",
            "translation" : [
                35.13475799560547,
                3.7534565925598145,
                -38.178985595703125
            ]
        }
    ],
    "animations" : [
        {
            "channels" : [
                {
                    "sampler" : 0,
                    "target" : {
                        "node" : 0,
                        "path" : "translation"
                    }
                },
                {
                    "sampler" : 1,
                    "target" : {
                        "node" : 0,
                        "path" : "rotation"
                    }
                },
                {
                    "sampler" : 2,
                    "target" : {
                        "node" : 0,
                        "path" : "scale"
                    }
                }
            ],
            "name" : "CameraCurve",
            "samplers" : [
                {
                    "input" : 4,
                    "interpolation" : "LINEAR",
                    "output" : 5
                },
                {
                    "input" : 4,
                    "interpolation" : "LINEAR",
                    "output" : 6
                },
                {
                    "input" : 4,
                    "interpolation" : "LINEAR",
                    "output" : 7
                }
            ]
        }
    ],
    "meshes" : [
        {
            "name" : "NurbsPath.008",
            "primitives" : [
                {
                    "attributes" : {
                        "POSITION" : 0,
                        "NORMAL" : 1,
                        "TEXCOORD_0" : 2
                    },
                    "indices" : 3
                }
            ]
        }
    ],
    "accessors" : [
        {
            "bufferView" : 0,
            "componentType" : 5126,
            "count" : 4970,
            "max" : [
                2,
                78.5584487915039,
                0.6388968229293823
            ],
            "min" : [
                -160.0348358154297,
                -1.067012071609497,
                -0.3900071978569031
            ],
            "type" : "VEC3"
        },
        {
            "bufferView" : 1,
            "componentType" : 5126,
            "count" : 4970,
            "type" : "VEC3"
        },
        {
            "bufferView" : 2,
            "componentType" : 5126,
            "count" : 4970,
            "type" : "VEC2"
        },
        {
            "bufferView" : 3,
            "componentType" : 5123,
            "count" : 7464,
            "type" : "SCALAR"
        },
        {
            "bufferView" : 4,
            "componentType" : 5126,
            "count" : 2,
            "max" : [
                0.041666666666666664
            ],
            "min" : [
                0
            ],
            "type" : "SCALAR"
        },
        {
            "bufferView" : 5,
            "componentType" : 5126,
            "count" : 2,
            "type" : "VEC3"
        },
        {
            "bufferView" : 6,
            "componentType" : 5126,
            "count" : 2,
            "type" : "VEC4"
        },
        {
            "bufferView" : 7,
            "componentType" : 5126,
            "count" : 2,
            "type" : "VEC3"
        }
    ],
    "bufferViews" : [
        {
            "buffer" : 0,
            "byteLength" : 59640,
            "byteOffset" : 0
        },
        {
            "buffer" : 0,
            "byteLength" : 59640,
            "byteOffset" : 59640
        },
        {
            "buffer" : 0,
            "byteLength" : 39760,
            "byteOffset" : 119280
        },
        {
            "buffer" : 0,
            "byteLength" : 14928,
            "byteOffset" : 159040
        },
        {
            "buffer" : 0,
            "byteLength" : 8,
            "byteOffset" : 173968
        },
        {
            "buffer" : 0,
            "byteLength" : 24,
            "byteOffset" : 173976
        },
        {
            "buffer" : 0,
            "byteLength" : 32,
            "byteOffset" : 174000
        },
        {
            "buffer" : 0,
            "byteLength" : 24,
            "byteOffset" : 174032
        }
    ],
    "buffers" : [
        {
            "byteLength" : 174056,
            "uri" : "data:application/octet-stream;base64,"
        }
    ]
}
