{
    "asset" : {
        "generator" : "Khronos glTF Blender I/O v3.2.43",
        "version" : "2.0"
    },
    "scene" : 0,
    "scenes" : [
        {
            "name" : "Scene",
            "nodes" : [
                0
            ]
        }
    ],
    "nodes" : [
        {
            "mesh" : 0,
            "name" : "NurbsPath",
            "translation" : [
                35.13475799560547,
                3.0478646755218506,
                -38.178985595703125
            ]
        }
    ],
    "animations" : [
        {
            "channels" : [
                {
                    "sampler" : 0,
                    "target" : {
                        "node" : 0,
                        "path" : "translation"
                    }
                },
                {
                    "sampler" : 1,
                    "target" : {
                        "node" : 0,
                        "path" : "rotation"
                    }
                },
                {
                    "sampler" : 2,
                    "target" : {
                        "node" : 0,
                        "path" : "scale"
                    }
                }
            ],
            "name" : "NurbsPath",
            "samplers" : [
                {
                    "input" : 4,
                    "interpolation" : "LINEAR",
                    "output" : 5
                },
                {
                    "input" : 4,
                    "interpolation" : "LINEAR",
                    "output" : 6
                },
                {
                    "input" : 4,
                    "interpolation" : "LINEAR",
                    "output" : 7
                }
            ]
        }
    ],
    "meshes" : [
        {
            "name" : "NurbsPath.008",
            "primitives" : [
                {
                    "attributes" : {
                        "POSITION" : 0,
                        "NORMAL" : 1,
                        "TEXCOORD_0" : 2
                    },
                    "indices" : 3
                }
            ]
        }
    ],
    "accessors" : [
        {
            "bufferView" : 0,
            "componentType" : 5126,
            "count" : 4966,
            "max" : [
                2.0000033378601074,
                69.12687683105469,
                0.3900001645088196
            ],
            "min" : [
                -160.0348358154297,
                -1.067012071609497,
                -0.3900093138217926
            ],
            "type" : "VEC3"
        },
        {
            "bufferView" : 1,
            "componentType" : 5126,
            "count" : 4966,
            "type" : "VEC3"
        },
        {
            "bufferView" : 2,
            "componentType" : 5126,
            "count" : 4966,
            "type" : "VEC2"
        },
        {
            "bufferView" : 3,
            "componentType" : 5123,
            "count" : 7464,
            "type" : "SCALAR"
        },
        {
            "bufferView" : 4,
            "componentType" : 5126,
            "count" : 295,
            "max" : [
                12.25
            ],
            "min" : [
                0
            ],
            "type" : "SCALAR"
        },
        {
            "bufferView" : 5,
            "componentType" : 5126,
            "count" : 295,
            "type" : "VEC3"
        },
        {
            "bufferView" : 6,
            "componentType" : 5126,
            "count" : 295,
            "type" : "VEC4"
        },
        {
            "bufferView" : 7,
            "componentType" : 5126,
            "count" : 295,
            "type" : "VEC3"
        }
    ],
    "bufferViews" : [
        {
            "buffer" : 0,
            "byteLength" : 59592,
            "byteOffset" : 0
        },
        {
            "buffer" : 0,
            "byteLength" : 59592,
            "byteOffset" : 59592
        },
        {
            "buffer" : 0,
            "byteLength" : 39728,
            "byteOffset" : 119184
        },
        {
            "buffer" : 0,
            "byteLength" : 14928,
            "byteOffset" : 158912
        },
        {
            "buffer" : 0,
            "byteLength" : 1180,
            "byteOffset" : 173840
        },
        {
            "buffer" : 0,
            "byteLength" : 3540,
            "byteOffset" : 175020
        },
        {
            "buffer" : 0,
            "byteLength" : 4720,
            "byteOffset" : 178560
        },
        {
            "buffer" : 0,
            "byteLength" : 3540,
            "byteOffset" : 183280
        }
    ],
    "buffers" : [
        {
            "byteLength" : 186820,
            "uri" : "data:application/octet-stream;base64,"
        }
    ]
}
