{
    "asset" : {
        "generator" : "Khronos glTF Blender I/O v3.2.43",
        "version" : "2.0"
    },
    "scene" : 0,
    "scenes" : [
        {
            "name" : "Scene",
            "nodes" : [
                0,
                2
            ]
        }
    ],
    "nodes" : [
        {
            "mesh" : 0,
            "name" : "Plane",
            "translation" : [
                0,
                4.0454487800598145,
                0
            ]
        },
        {
            "name" : "Empty",
            "rotation" : [
                0,
                -0.7071069478988647,
                0,
                0.7071065902709961
            ],
            "translation" : [
                0.3685455322265625,
                -4.6402587890625,
                80.33275604248047
            ]
        },
        {
            "children" : [
                1
            ],
            "name" : "BezierCircle",
            "translation" : [
                -144.1573486328125,
                4.6402587890625,
                -139.747314453125
            ]
        }
    ],
    "materials" : [
        {
            "doubleSided" : true,
            "name" : "Water Mat",
            "pbrMetallicRoughness" : {
                "baseColorFactor" : [
                    0.027550948783755302,
                    0.11915061622858047,
                    0.5225013494491577,
                    1
                ],
                "metallicFactor" : 0,
                "roughnessFactor" : 0.5
            }
        }
    ],
    "meshes" : [
        {
            "name" : "Plane.003",
            "primitives" : [
                {
                    "attributes" : {
                        "POSITION" : 0,
                        "NORMAL" : 1,
                        "TEXCOORD_0" : 2
                    },
                    "indices" : 3,
                    "material" : 0
                }
            ]
        }
    ],
    "accessors" : [
        {
            "bufferView" : 0,
            "componentType" : 5126,
            "count" : 7872,
            "max" : [
                150,
                4.385417461395264,
                150
            ],
            "min" : [
                -150,
                -6.418730735778809,
                -150
            ],
            "type" : "VEC3"
        },
        {
            "bufferView" : 1,
            "componentType" : 5126,
            "count" : 7872,
            "type" : "VEC3"
        },
        {
            "bufferView" : 2,
            "componentType" : 5126,
            "count" : 7872,
            "type" : "VEC2"
        },
        {
            "bufferView" : 3,
            "componentType" : 5123,
            "count" : 8556,
            "type" : "SCALAR"
        }
    ],
    "bufferViews" : [
        {
            "buffer" : 0,
            "byteLength" : 94464,
            "byteOffset" : 0
        },
        {
            "buffer" : 0,
            "byteLength" : 94464,
            "byteOffset" : 94464
        },
        {
            "buffer" : 0,
            "byteLength" : 62976,
            "byteOffset" : 188928
        },
        {
            "buffer" : 0,
            "byteLength" : 17112,
            "byteOffset" : 251904
        }
    ],
    "buffers" : [
        {
            "byteLength" : 269016,
            "uri" : "data:application/octet-stream;base64,"
        }
    ]
}
