<svg width="1920" height="5400" viewBox="0 0 1920 5400" fill="none" xmlns="http://www.w3.org/2000/svg">
<g clip-path="url(#clip0_0_1)">
<rect width="1920" height="5400" fill="#051B45" fill-opacity ="0"/>
<g opacity="0.7">
<g opacity="0.7">
<path opacity="0.7" d="M1748.83 3752.14C1747.31 3754.8 1748.23 3758.18 1750.88 3759.7C1753.53 3761.21 1756.91 3760.3 1758.43 3757.65C1759.95 3754.99 1759.03 3751.61 1756.38 3750.09C1753.73 3748.57 1750.35 3749.49 1748.83 3752.14Z" fill="white"/>
<path opacity="0.7" d="M1724.15 3795.21C1722.63 3797.87 1723.55 3801.25 1726.2 3802.77C1728.85 3804.28 1732.23 3803.37 1733.75 3800.71C1735.27 3798.06 1734.35 3794.68 1731.7 3793.16C1729.05 3791.64 1725.67 3792.56 1724.15 3795.21Z" fill="white"/>
<path opacity="0.7" d="M1699.45 3838.32C1697.93 3840.97 1698.85 3844.35 1701.5 3845.87C1704.16 3847.39 1707.54 3846.47 1709.06 3843.82C1710.57 3841.17 1709.66 3837.79 1707.01 3836.27C1704.35 3834.75 1700.97 3835.67 1699.45 3838.32Z" fill="white"/>
<path opacity="0.7" d="M1674.78 3881.39C1673.26 3884.04 1674.18 3887.42 1676.83 3888.94C1679.48 3890.46 1682.86 3889.54 1684.38 3886.89C1685.9 3884.24 1684.98 3880.86 1682.33 3879.34C1679.68 3877.82 1676.3 3878.74 1674.78 3881.39Z" fill="white"/>
<path opacity="0.7" d="M1650.08 3924.49C1648.56 3927.14 1649.48 3930.52 1652.13 3932.04C1654.78 3933.56 1658.16 3932.64 1659.68 3929.99C1661.2 3927.34 1660.28 3923.96 1657.63 3922.44C1654.98 3920.92 1651.6 3921.84 1650.08 3924.49Z" fill="white"/>
<path opacity="0.7" d="M1627.45 3975.11C1624.81 3973.6 1623.89 3970.2 1625.4 3967.56C1626.92 3964.92 1630.28 3963.98 1632.96 3965.51C1635.6 3967.02 1636.52 3970.42 1635.01 3973.06C1633.49 3975.7 1630.13 3976.64 1627.45 3975.11Z" fill="white"/>
<path opacity="0.7" d="M1600.73 4010.63C1599.21 4013.28 1600.13 4016.66 1602.78 4018.18C1605.43 4019.7 1608.81 4018.78 1610.33 4016.13C1611.85 4013.48 1610.93 4010.1 1608.28 4008.58C1605.63 4007.06 1602.25 4007.98 1600.73 4010.63Z" fill="white"/>
<path opacity="0.7" d="M1578.1 4061.25C1575.46 4059.74 1574.54 4056.34 1576.05 4053.7C1577.56 4051.06 1580.93 4050.12 1583.6 4051.65C1586.24 4053.16 1587.17 4056.56 1585.65 4059.2C1584.12 4061.88 1580.78 4062.78 1578.1 4061.25Z" fill="white"/>
<path opacity="0.7" d="M1551.36 4096.8C1549.84 4099.45 1550.75 4102.84 1553.41 4104.35C1556.06 4105.87 1559.44 4104.96 1560.96 4102.3C1562.48 4099.65 1561.56 4096.27 1558.91 4094.75C1556.25 4093.23 1552.87 4094.15 1551.36 4096.8Z" fill="white"/>
<path opacity="0.7" d="M1528.73 4147.43C1526.09 4145.91 1525.17 4142.51 1526.68 4139.87C1528.19 4137.23 1531.56 4136.29 1534.23 4137.82C1536.87 4139.34 1537.79 4142.73 1536.28 4145.37C1534.75 4148.05 1531.4 4148.96 1528.73 4147.43Z" fill="white"/>
<path opacity="0.7" d="M1501.98 4182.98C1500.46 4185.63 1501.38 4189.01 1504.03 4190.53C1506.68 4192.05 1510.06 4191.13 1511.58 4188.48C1513.1 4185.83 1512.18 4182.45 1509.53 4180.93C1506.88 4179.41 1503.5 4180.33 1501.98 4182.98Z" fill="white"/>
</g>
<g opacity="0.7">
<path opacity="0.7" d="M1710.56 3730.22C1709.04 3732.87 1709.96 3736.25 1712.61 3737.77C1715.26 3739.29 1718.64 3738.37 1720.16 3735.72C1721.68 3733.07 1720.76 3729.69 1718.11 3728.17C1715.46 3726.65 1712.08 3727.57 1710.56 3730.22Z" fill="white"/>
<path opacity="0.7" d="M1685.88 3773.29C1684.36 3775.94 1685.28 3779.32 1687.93 3780.84C1690.58 3782.36 1693.96 3781.44 1695.48 3778.79C1697 3776.14 1696.08 3772.76 1693.43 3771.24C1690.78 3769.72 1687.4 3770.64 1685.88 3773.29Z" fill="white"/>
<path opacity="0.7" d="M1661.18 3816.39C1659.67 3819.04 1660.58 3822.42 1663.24 3823.94C1665.89 3825.46 1669.27 3824.54 1670.79 3821.89C1672.31 3819.24 1671.39 3815.86 1668.74 3814.34C1666.08 3812.82 1662.7 3813.74 1661.18 3816.39Z" fill="white"/>
<path opacity="0.7" d="M1636.51 3859.46C1634.99 3862.11 1635.91 3865.49 1638.56 3867.01C1641.21 3868.53 1644.59 3867.61 1646.11 3864.96C1647.63 3862.31 1646.71 3858.93 1644.06 3857.41C1641.41 3855.89 1638.03 3856.81 1636.51 3859.46Z" fill="white"/>
<path opacity="0.7" d="M1611.81 3902.56C1610.29 3905.22 1611.21 3908.6 1613.86 3910.12C1616.51 3911.64 1619.89 3910.72 1621.41 3908.07C1622.93 3905.41 1622.01 3902.03 1619.36 3900.51C1616.71 3899 1613.33 3899.91 1611.81 3902.56Z" fill="white"/>
<path opacity="0.7" d="M1589.19 3953.19C1586.55 3951.67 1585.62 3948.27 1587.14 3945.63C1588.65 3942.99 1592.01 3942.05 1594.69 3943.58C1597.33 3945.1 1598.25 3948.49 1596.74 3951.14C1595.19 3953.76 1591.83 3954.7 1589.19 3953.19Z" fill="white"/>
<path opacity="0.7" d="M1562.46 3988.7C1560.94 3991.35 1561.86 3994.74 1564.51 3996.25C1567.16 3997.77 1570.54 3996.86 1572.06 3994.2C1573.58 3991.55 1572.66 3988.17 1570.01 3986.65C1567.36 3985.13 1563.98 3986.05 1562.46 3988.7Z" fill="white"/>
<path opacity="0.7" d="M1539.83 4039.32C1537.19 4037.81 1536.27 4034.41 1537.78 4031.77C1539.3 4029.13 1542.66 4028.19 1545.33 4029.72C1547.97 4031.24 1548.9 4034.63 1547.38 4037.27C1545.82 4039.93 1542.47 4040.84 1539.83 4039.32Z" fill="white"/>
<path opacity="0.7" d="M1513.09 4074.88C1511.57 4077.53 1512.48 4080.91 1515.14 4082.43C1517.79 4083.95 1521.17 4083.03 1522.69 4080.38C1524.21 4077.73 1523.29 4074.35 1520.64 4072.83C1517.99 4071.31 1514.61 4072.23 1513.09 4074.88Z" fill="white"/>
<path opacity="0.7" d="M1490.46 4125.5C1487.82 4123.99 1486.9 4120.59 1488.41 4117.95C1489.92 4115.31 1493.29 4114.36 1495.96 4115.9C1498.6 4117.41 1499.52 4120.81 1498.01 4123.45C1496.44 4126.1 1493.1 4127.01 1490.46 4125.5Z" fill="white"/>
<path opacity="0.7" d="M1463.71 4161.05C1462.19 4163.7 1463.11 4167.08 1465.76 4168.6C1468.41 4170.12 1471.8 4169.2 1473.31 4166.55C1474.83 4163.9 1473.92 4160.52 1471.26 4159C1468.61 4157.48 1465.23 4158.4 1463.71 4161.05Z" fill="white"/>
</g>
<g opacity="0.7">
<path opacity="0.7" d="M1674.3 3715.82C1671.66 3714.31 1670.74 3710.91 1672.25 3708.27C1673.77 3705.63 1677.17 3704.71 1679.81 3706.22C1682.45 3707.74 1683.39 3711.1 1681.86 3713.77C1680.31 3716.39 1676.95 3717.34 1674.3 3715.82Z" fill="white"/>
<path opacity="0.7" d="M1649.63 3758.89C1646.99 3757.38 1646.05 3754.02 1647.58 3751.34C1649.09 3748.7 1652.49 3747.78 1655.13 3749.29C1657.77 3750.8 1658.69 3754.2 1657.18 3756.84C1655.61 3759.5 1652.27 3760.41 1649.63 3758.89Z" fill="white"/>
<path opacity="0.7" d="M1624.95 3801.96C1622.31 3800.45 1621.39 3797.05 1622.9 3794.41C1624.41 3791.77 1627.81 3790.85 1630.45 3792.36C1633.09 3793.87 1634.04 3797.24 1632.5 3799.91C1630.94 3802.57 1627.59 3803.48 1624.95 3801.96Z" fill="white"/>
<path opacity="0.7" d="M1600.26 3845.07C1597.61 3843.55 1596.67 3840.19 1598.21 3837.52C1599.72 3834.88 1603.12 3833.95 1605.76 3835.47C1608.4 3836.98 1609.32 3840.38 1607.81 3843.02C1606.26 3845.64 1602.9 3846.58 1600.26 3845.07Z" fill="white"/>
<path opacity="0.7" d="M1575.58 3888.14C1572.94 3886.62 1572.02 3883.23 1573.53 3880.59C1575.04 3877.94 1578.44 3877.02 1581.08 3878.54C1583.72 3880.05 1584.66 3883.41 1583.13 3886.09C1581.56 3888.74 1578.22 3889.65 1575.58 3888.14Z" fill="white"/>
<path opacity="0.7" d="M1550.88 3931.24C1548.24 3929.73 1547.32 3926.33 1548.83 3923.69C1550.35 3921.05 1553.74 3920.13 1556.38 3921.64C1559.02 3923.15 1559.95 3926.55 1558.43 3929.19C1556.89 3931.81 1553.52 3932.75 1550.88 3931.24Z" fill="white"/>
<path opacity="0.7" d="M1526.21 3974.31C1523.57 3972.8 1522.64 3969.4 1524.16 3966.76C1525.67 3964.12 1529.07 3963.2 1531.71 3964.71C1534.35 3966.22 1535.29 3969.59 1533.76 3972.26C1532.21 3974.88 1528.85 3975.82 1526.21 3974.31Z" fill="white"/>
<path opacity="0.7" d="M1501.53 4017.38C1498.89 4015.87 1497.97 4012.47 1499.48 4009.83C1500.99 4007.19 1504.39 4006.27 1507.03 4007.78C1509.67 4009.29 1510.59 4012.69 1509.08 4015.33C1507.51 4017.99 1504.17 4018.89 1501.53 4017.38Z" fill="white"/>
<path opacity="0.7" d="M1476.83 4060.48C1474.19 4058.97 1473.27 4055.57 1474.78 4052.93C1476.3 4050.29 1479.69 4049.37 1482.33 4050.88C1484.97 4052.39 1485.92 4055.76 1484.38 4058.43C1482.84 4061.05 1479.47 4062 1476.83 4060.48Z" fill="white"/>
<path opacity="0.7" d="M1452.16 4103.55C1449.52 4102.04 1448.59 4098.64 1450.11 4096C1451.62 4093.36 1455.02 4092.44 1457.66 4093.95C1460.3 4095.47 1461.22 4098.86 1459.71 4101.5C1458.14 4104.16 1454.8 4105.07 1452.16 4103.55Z" fill="white"/>
<path opacity="0.7" d="M1427.46 4146.66C1424.82 4145.14 1423.88 4141.78 1425.41 4139.11C1426.94 4136.43 1430.32 4135.54 1432.96 4137.06C1435.6 4138.57 1436.54 4141.93 1435.01 4144.61C1433.48 4147.28 1430.1 4148.17 1427.46 4146.66Z" fill="white"/>
</g>
<g opacity="0.7">
<path opacity="0.7" d="M1636 3693.88C1633.36 3692.37 1632.44 3688.97 1633.95 3686.33C1635.46 3683.69 1638.83 3682.74 1641.5 3684.28C1644.14 3685.79 1645.09 3689.15 1643.55 3691.83C1642.04 3694.47 1638.64 3695.39 1636 3693.88Z" fill="white"/>
<path opacity="0.7" d="M1611.32 3736.95C1608.68 3735.44 1607.74 3732.07 1609.27 3729.4C1610.79 3726.76 1614.15 3725.81 1616.83 3727.35C1619.47 3728.86 1620.39 3732.26 1618.88 3734.9C1617.34 3737.57 1613.97 3738.46 1611.32 3736.95Z" fill="white"/>
<path opacity="0.7" d="M1586.65 3780.02C1584.01 3778.5 1583.09 3775.11 1584.6 3772.47C1586.11 3769.83 1589.47 3768.88 1592.15 3770.42C1594.79 3771.93 1595.73 3775.29 1594.2 3777.97C1592.67 3780.64 1589.29 3781.53 1586.65 3780.02Z" fill="white"/>
<path opacity="0.7" d="M1561.95 3823.12C1559.31 3821.61 1558.37 3818.25 1559.9 3815.57C1561.41 3812.93 1564.78 3811.99 1567.45 3813.52C1570.09 3815.03 1571.02 3818.43 1569.5 3821.07C1567.99 3823.71 1564.59 3824.63 1561.95 3823.12Z" fill="white"/>
<path opacity="0.7" d="M1537.28 3866.19C1534.64 3864.68 1533.71 3861.28 1535.23 3858.64C1536.74 3856 1540.1 3855.06 1542.78 3856.59C1545.42 3858.1 1546.36 3861.47 1544.83 3864.14C1543.29 3866.82 1539.92 3867.7 1537.28 3866.19Z" fill="white"/>
<path opacity="0.7" d="M1512.58 3909.29C1509.94 3907.78 1509.02 3904.38 1510.53 3901.74C1512.04 3899.1 1515.41 3898.16 1518.08 3899.69C1520.72 3901.21 1521.64 3904.6 1520.13 3907.24C1518.62 3909.89 1515.22 3910.81 1512.58 3909.29Z" fill="white"/>
<path opacity="0.7" d="M1487.9 3952.36C1485.26 3950.85 1484.34 3947.45 1485.85 3944.81C1487.37 3942.17 1490.73 3941.23 1493.4 3942.76C1496.04 3944.28 1496.99 3947.64 1495.45 3950.31C1493.94 3952.95 1490.54 3953.88 1487.9 3952.36Z" fill="white"/>
<path opacity="0.7" d="M1463.23 3995.43C1460.59 3993.92 1459.66 3990.52 1461.18 3987.88C1462.69 3985.24 1466.05 3984.3 1468.73 3985.83C1471.37 3987.35 1472.29 3990.74 1470.78 3993.38C1469.25 3996.06 1465.87 3996.95 1463.23 3995.43Z" fill="white"/>
<path opacity="0.7" d="M1438.53 4038.54C1435.89 4037.03 1434.97 4033.63 1436.48 4030.99C1437.99 4028.35 1441.36 4027.4 1444.03 4028.94C1446.67 4030.45 1447.61 4033.81 1446.08 4036.49C1444.57 4039.13 1441.17 4040.05 1438.53 4038.54Z" fill="white"/>
<path opacity="0.7" d="M1413.85 4081.61C1411.21 4080.1 1410.29 4076.7 1411.8 4074.06C1413.32 4071.42 1416.68 4070.47 1419.35 4072.01C1422 4073.52 1422.92 4076.92 1421.4 4079.56C1419.87 4082.23 1416.49 4083.12 1413.85 4081.61Z" fill="white"/>
<path opacity="0.7" d="M1389.16 4124.71C1386.52 4123.2 1385.57 4119.83 1387.11 4117.16C1388.64 4114.49 1391.98 4113.58 1394.66 4115.11C1397.3 4116.62 1398.24 4119.99 1396.71 4122.66C1395.18 4125.34 1391.8 4126.22 1389.16 4124.71Z" fill="white"/>
</g>
<g opacity="0.7">
<path opacity="0.7" d="M1595.65 3664.38C1594.13 3667.03 1595.05 3670.41 1597.7 3671.93C1600.35 3673.45 1603.73 3672.53 1605.25 3669.88C1606.77 3667.23 1605.85 3663.85 1603.2 3662.33C1600.55 3660.81 1597.17 3661.73 1595.65 3664.38Z" fill="white"/>
<path opacity="0.7" d="M1570.97 3707.45C1569.45 3710.1 1570.37 3713.48 1573.02 3715C1575.67 3716.52 1579.05 3715.6 1580.57 3712.95C1582.09 3710.3 1581.17 3706.92 1578.52 3705.4C1575.87 3703.88 1572.49 3704.8 1570.97 3707.45Z" fill="white"/>
<path opacity="0.7" d="M1546.28 3750.55C1544.76 3753.21 1545.67 3756.59 1548.33 3758.11C1550.98 3759.63 1554.36 3758.71 1555.88 3756.06C1557.4 3753.4 1556.48 3750.02 1553.83 3748.5C1551.18 3746.99 1547.79 3747.9 1546.28 3750.55Z" fill="white"/>
<path opacity="0.7" d="M1521.6 3793.62C1520.08 3796.28 1521 3799.66 1523.65 3801.18C1526.3 3802.69 1529.68 3801.78 1531.2 3799.13C1532.72 3796.47 1531.8 3793.09 1529.15 3791.57C1526.5 3790.06 1523.12 3790.97 1521.6 3793.62Z" fill="white"/>
<path opacity="0.7" d="M1496.9 3836.73C1495.38 3839.38 1496.3 3842.76 1498.95 3844.28C1501.6 3845.8 1504.99 3844.88 1506.5 3842.23C1508.02 3839.58 1507.11 3836.2 1504.45 3834.68C1501.8 3833.16 1498.42 3834.08 1496.9 3836.73Z" fill="white"/>
<path opacity="0.7" d="M1474.28 3887.35C1471.64 3885.84 1470.71 3882.44 1472.23 3879.8C1473.74 3877.16 1477.1 3876.22 1479.78 3877.75C1482.45 3879.28 1483.34 3882.66 1481.83 3885.3C1480.31 3887.94 1476.92 3888.86 1474.28 3887.35Z" fill="white"/>
<path opacity="0.7" d="M1447.55 3922.87C1446.03 3925.52 1446.95 3928.9 1449.6 3930.42C1452.25 3931.94 1455.63 3931.02 1457.15 3928.37C1458.67 3925.72 1457.75 3922.34 1455.1 3920.82C1452.45 3919.3 1449.07 3920.22 1447.55 3922.87Z" fill="white"/>
<path opacity="0.7" d="M1424.92 3973.49C1422.28 3971.98 1421.36 3968.58 1422.87 3965.94C1424.39 3963.3 1427.75 3962.35 1430.42 3963.89C1433.1 3965.42 1433.99 3968.8 1432.47 3971.44C1430.94 3974.11 1427.56 3975 1424.92 3973.49Z" fill="white"/>
<path opacity="0.7" d="M1398.18 4009.04C1396.66 4011.69 1397.58 4015.07 1400.23 4016.59C1402.88 4018.11 1406.26 4017.19 1407.78 4014.54C1409.3 4011.89 1408.38 4008.51 1405.73 4006.99C1403.08 4005.47 1399.7 4006.39 1398.18 4009.04Z" fill="white"/>
<path opacity="0.7" d="M1375.55 4059.66C1372.91 4058.15 1371.99 4054.75 1373.5 4052.11C1375.01 4049.47 1378.38 4048.53 1381.05 4050.06C1383.73 4051.59 1384.61 4054.97 1383.1 4057.61C1381.57 4060.29 1378.19 4061.18 1375.55 4059.66Z" fill="white"/>
<path opacity="0.7" d="M1348.8 4095.21C1347.29 4097.87 1348.2 4101.25 1350.85 4102.77C1353.51 4104.28 1356.89 4103.37 1358.41 4100.72C1359.92 4098.06 1359.01 4094.68 1356.36 4093.16C1353.7 4091.64 1350.32 4092.56 1348.8 4095.21Z" fill="white"/>
</g>
<g opacity="0.7">
<path opacity="0.7" d="M1557.35 3642.44C1555.83 3645.09 1556.74 3648.47 1559.4 3649.99C1562.05 3651.51 1565.43 3650.59 1566.95 3647.94C1568.47 3645.29 1567.55 3641.9 1564.9 3640.39C1562.25 3638.87 1558.86 3639.78 1557.35 3642.44Z" fill="white"/>
<path opacity="0.7" d="M1532.67 3685.51C1531.15 3688.16 1532.07 3691.54 1534.72 3693.06C1537.37 3694.58 1540.75 3693.66 1542.27 3691.01C1543.79 3688.36 1542.87 3684.97 1540.22 3683.46C1537.57 3681.94 1534.19 3682.85 1532.67 3685.51Z" fill="white"/>
<path opacity="0.7" d="M1507.97 3728.61C1506.45 3731.26 1507.37 3734.64 1510.02 3736.16C1512.67 3737.68 1516.05 3736.76 1517.57 3734.11C1519.09 3731.46 1518.18 3728.08 1515.52 3726.56C1512.87 3725.04 1509.49 3725.96 1507.97 3728.61Z" fill="white"/>
<path opacity="0.7" d="M1483.3 3771.68C1481.78 3774.33 1482.69 3777.71 1485.35 3779.23C1488 3780.75 1491.38 3779.83 1492.9 3777.18C1494.42 3774.53 1493.5 3771.15 1490.85 3769.63C1488.2 3768.11 1484.81 3769.03 1483.3 3771.68Z" fill="white"/>
<path opacity="0.7" d="M1458.6 3814.78C1457.08 3817.43 1458 3820.82 1460.65 3822.33C1463.3 3823.85 1466.68 3822.94 1468.2 3820.28C1469.72 3817.63 1468.8 3814.25 1466.15 3812.73C1463.5 3811.21 1460.12 3812.13 1458.6 3814.78Z" fill="white"/>
<path opacity="0.7" d="M1435.97 3865.4C1433.33 3863.89 1432.41 3860.49 1433.92 3857.85C1435.44 3855.21 1438.83 3854.29 1441.47 3855.8C1444.11 3857.31 1445.04 3860.71 1443.52 3863.35C1442.01 3865.99 1438.65 3866.94 1435.97 3865.4Z" fill="white"/>
<path opacity="0.7" d="M1409.25 3900.92C1407.73 3903.57 1408.65 3906.95 1411.3 3908.47C1413.95 3909.99 1417.33 3909.07 1418.85 3906.42C1420.37 3903.77 1419.45 3900.39 1416.8 3898.87C1414.15 3897.35 1410.77 3898.27 1409.25 3900.92Z" fill="white"/>
<path opacity="0.7" d="M1386.62 3951.54C1383.98 3950.03 1383.06 3946.63 1384.57 3943.99C1386.08 3941.35 1389.48 3940.43 1392.12 3941.94C1394.76 3943.45 1395.68 3946.85 1394.17 3949.49C1392.64 3952.17 1389.29 3953.08 1386.62 3951.54Z" fill="white"/>
<path opacity="0.7" d="M1359.87 3987.1C1358.35 3989.75 1359.27 3993.13 1361.92 3994.65C1364.58 3996.17 1367.96 3995.25 1369.48 3992.6C1370.99 3989.95 1370.08 3986.56 1367.42 3985.05C1364.77 3983.53 1361.39 3984.44 1359.87 3987.1Z" fill="white"/>
<path opacity="0.7" d="M1337.25 4037.72C1334.61 4036.2 1333.68 4032.81 1335.2 4030.17C1336.71 4027.53 1340.11 4026.6 1342.75 4028.12C1345.39 4029.63 1346.31 4033.03 1344.8 4035.67C1343.27 4038.34 1339.92 4039.25 1337.25 4037.72Z" fill="white"/>
<path opacity="0.7" d="M1310.5 4073.27C1308.98 4075.92 1309.9 4079.3 1312.55 4080.82C1315.2 4082.34 1318.58 4081.42 1320.1 4078.77C1321.62 4076.12 1320.7 4072.74 1318.05 4071.22C1315.4 4069.7 1312.02 4070.62 1310.5 4073.27Z" fill="white"/>
</g>
<g opacity="0.7">
<path opacity="0.7" d="M1519.08 3620.51C1517.56 3623.16 1518.48 3626.54 1521.13 3628.06C1523.78 3629.58 1527.16 3628.66 1528.68 3626.01C1530.2 3623.36 1529.28 3619.98 1526.63 3618.46C1523.98 3616.94 1520.6 3617.86 1519.08 3620.51Z" fill="white"/>
<path opacity="0.7" d="M1494.4 3663.58C1492.88 3666.23 1493.8 3669.61 1496.45 3671.13C1499.1 3672.65 1502.48 3671.73 1504 3669.08C1505.52 3666.43 1504.6 3663.05 1501.95 3661.53C1499.3 3660.01 1495.92 3660.93 1494.4 3663.58Z" fill="white"/>
<path opacity="0.7" d="M1469.7 3706.68C1468.18 3709.33 1469.1 3712.72 1471.75 3714.23C1474.41 3715.75 1477.79 3714.84 1479.31 3712.18C1480.82 3709.53 1479.91 3706.15 1477.25 3704.63C1474.6 3703.11 1471.22 3704.03 1469.7 3706.68Z" fill="white"/>
<path opacity="0.7" d="M1445.03 3749.75C1443.51 3752.4 1444.43 3755.78 1447.08 3757.3C1449.73 3758.82 1453.11 3757.9 1454.63 3755.25C1456.15 3752.6 1455.23 3749.22 1452.58 3747.7C1449.93 3746.18 1446.55 3747.1 1445.03 3749.75Z" fill="white"/>
<path opacity="0.7" d="M1420.33 3792.86C1418.81 3795.51 1419.73 3798.89 1422.38 3800.41C1425.03 3801.93 1428.41 3801.01 1429.93 3798.36C1431.45 3795.71 1430.53 3792.33 1427.88 3790.81C1425.23 3789.29 1421.85 3790.21 1420.33 3792.86Z" fill="white"/>
<path opacity="0.7" d="M1397.7 3843.48C1395.06 3841.96 1394.14 3838.57 1395.65 3835.93C1397.17 3833.29 1400.53 3832.34 1403.21 3833.88C1405.88 3835.41 1406.77 3838.79 1405.26 3841.43C1403.71 3844.05 1400.34 3844.99 1397.7 3843.48Z" fill="white"/>
<path opacity="0.7" d="M1370.98 3879C1369.46 3881.65 1370.38 3885.03 1373.03 3886.55C1375.68 3888.07 1379.06 3887.15 1380.58 3884.5C1382.1 3881.84 1381.18 3878.46 1378.53 3876.94C1375.88 3875.43 1372.5 3876.34 1370.98 3879Z" fill="white"/>
<path opacity="0.7" d="M1348.35 3929.62C1345.71 3928.1 1344.79 3924.71 1346.3 3922.07C1347.81 3919.43 1351.18 3918.48 1353.85 3920.02C1356.53 3921.55 1357.42 3924.93 1355.9 3927.57C1354.34 3930.22 1350.99 3931.13 1348.35 3929.62Z" fill="white"/>
<path opacity="0.7" d="M1321.6 3965.17C1320.09 3967.82 1321 3971.2 1323.66 3972.72C1326.31 3974.24 1329.69 3973.32 1331.21 3970.67C1332.73 3968.02 1331.81 3964.64 1329.16 3963.12C1326.5 3961.6 1323.12 3962.52 1321.6 3965.17Z" fill="white"/>
<path opacity="0.7" d="M1298.98 4015.79C1296.34 4014.28 1295.42 4010.88 1296.93 4008.24C1298.44 4005.6 1301.8 4004.66 1304.48 4006.19C1307.15 4007.72 1308.04 4011.1 1306.53 4013.74C1304.96 4016.4 1301.62 4017.3 1298.98 4015.79Z" fill="white"/>
<path opacity="0.7" d="M1272.23 4051.34C1270.71 4053.99 1271.63 4057.37 1274.28 4058.89C1276.93 4060.41 1280.31 4059.49 1281.83 4056.84C1283.35 4054.19 1282.43 4050.81 1279.78 4049.29C1277.13 4047.77 1273.75 4048.69 1272.23 4051.34Z" fill="white"/>
</g>
<g opacity="0.7">
<path opacity="0.7" d="M1482.82 3606.12C1480.18 3604.6 1479.26 3601.2 1480.77 3598.56C1482.29 3595.92 1485.65 3594.98 1488.32 3596.51C1490.96 3598.03 1491.91 3601.39 1490.37 3604.06C1488.83 3606.69 1485.46 3607.63 1482.82 3606.12Z" fill="white"/>
<path opacity="0.7" d="M1458.15 3649.18C1455.51 3647.67 1454.56 3644.31 1456.1 3641.63C1457.61 3638.99 1460.97 3638.05 1463.65 3639.58C1466.29 3641.1 1467.21 3644.49 1465.7 3647.13C1464.13 3649.79 1460.79 3650.7 1458.15 3649.18Z" fill="white"/>
<path opacity="0.7" d="M1433.47 3692.25C1430.83 3690.74 1429.91 3687.34 1431.42 3684.7C1432.93 3682.06 1436.3 3681.12 1438.97 3682.65C1441.61 3684.17 1442.55 3687.53 1441.02 3690.2C1439.45 3692.86 1436.11 3693.77 1433.47 3692.25Z" fill="white"/>
<path opacity="0.7" d="M1408.77 3735.36C1406.13 3733.85 1405.19 3730.48 1406.72 3727.81C1408.24 3725.17 1411.6 3724.22 1414.28 3725.76C1416.92 3727.27 1417.84 3730.67 1416.33 3733.31C1414.78 3735.93 1411.41 3736.87 1408.77 3735.36Z" fill="white"/>
<path opacity="0.7" d="M1384.1 3778.43C1381.46 3776.91 1380.53 3773.52 1382.05 3770.88C1383.56 3768.24 1386.92 3767.29 1389.6 3768.83C1392.24 3770.34 1393.18 3773.7 1391.65 3776.38C1390.08 3779.03 1386.74 3779.94 1384.1 3778.43Z" fill="white"/>
<path opacity="0.7" d="M1359.4 3821.53C1356.76 3820.02 1355.84 3816.62 1357.35 3813.98C1358.86 3811.34 1362.23 3810.4 1364.9 3811.93C1367.54 3813.44 1368.47 3816.84 1366.95 3819.48C1365.41 3822.1 1362.04 3823.04 1359.4 3821.53Z" fill="white"/>
<path opacity="0.7" d="M1334.72 3864.6C1332.08 3863.09 1331.16 3859.69 1332.67 3857.05C1334.19 3854.41 1337.55 3853.47 1340.23 3855C1342.87 3856.51 1343.81 3859.88 1342.28 3862.55C1340.73 3865.17 1337.37 3866.11 1334.72 3864.6Z" fill="white"/>
<path opacity="0.7" d="M1310.05 3907.67C1307.41 3906.16 1306.49 3902.76 1308 3900.12C1309.51 3897.48 1312.87 3896.54 1315.55 3898.07C1318.19 3899.58 1319.11 3902.98 1317.6 3905.62C1316.03 3908.28 1312.69 3909.18 1310.05 3907.67Z" fill="white"/>
<path opacity="0.7" d="M1285.35 3950.77C1282.71 3949.26 1281.79 3945.86 1283.3 3943.22C1284.81 3940.58 1288.18 3939.64 1290.85 3941.17C1293.49 3942.69 1294.44 3946.05 1292.9 3948.72C1291.36 3951.34 1287.99 3952.29 1285.35 3950.77Z" fill="white"/>
<path opacity="0.7" d="M1260.68 3993.84C1258.03 3992.33 1257.11 3988.93 1258.63 3986.29C1260.14 3983.65 1263.5 3982.71 1266.18 3984.24C1268.82 3985.76 1269.74 3989.15 1268.23 3991.79C1266.66 3994.45 1263.32 3995.36 1260.68 3993.84Z" fill="white"/>
<path opacity="0.7" d="M1235.98 4036.95C1233.34 4035.44 1232.4 4032.07 1233.93 4029.4C1235.46 4026.72 1238.81 4025.81 1241.48 4027.35C1244.12 4028.86 1245.06 4032.22 1243.53 4034.9C1242 4037.57 1238.62 4038.46 1235.98 4036.95Z" fill="white"/>
</g>
<g opacity="0.7">
<path opacity="0.7" d="M1444.52 3584.17C1441.88 3582.66 1440.96 3579.26 1442.47 3576.62C1443.98 3573.98 1447.35 3573.04 1450.02 3574.57C1452.66 3576.08 1453.6 3579.44 1452.07 3582.12C1450.56 3584.76 1447.16 3585.68 1444.52 3584.17Z" fill="white"/>
<path opacity="0.7" d="M1419.84 3627.24C1417.2 3625.73 1416.26 3622.36 1417.79 3619.69C1419.31 3617.05 1422.67 3616.1 1425.34 3617.64C1427.99 3619.15 1428.91 3622.55 1427.4 3625.19C1425.86 3627.86 1422.48 3628.75 1419.84 3627.24Z" fill="white"/>
<path opacity="0.7" d="M1395.17 3670.31C1392.53 3668.8 1391.6 3665.4 1393.12 3662.76C1394.63 3660.12 1397.99 3659.17 1400.67 3660.71C1403.31 3662.22 1404.25 3665.58 1402.72 3668.26C1401.19 3670.93 1397.81 3671.82 1395.17 3670.31Z" fill="white"/>
<path opacity="0.7" d="M1370.47 3713.41C1367.83 3711.9 1366.89 3708.54 1368.42 3705.86C1369.93 3703.22 1373.3 3702.28 1375.97 3703.81C1378.61 3705.32 1379.54 3708.72 1378.02 3711.36C1376.51 3714 1373.11 3714.93 1370.47 3713.41Z" fill="white"/>
<path opacity="0.7" d="M1345.79 3756.48C1343.15 3754.97 1342.23 3751.57 1343.74 3748.93C1345.26 3746.29 1348.62 3745.35 1351.3 3746.88C1353.94 3748.39 1354.88 3751.76 1353.35 3754.43C1351.81 3757.11 1348.43 3757.99 1345.79 3756.48Z" fill="white"/>
<path opacity="0.7" d="M1321.1 3799.59C1318.46 3798.07 1317.54 3794.68 1319.05 3792.03C1320.56 3789.39 1323.92 3788.45 1326.6 3789.98C1329.24 3791.5 1330.16 3794.9 1328.65 3797.54C1327.14 3800.18 1323.74 3801.1 1321.1 3799.59Z" fill="white"/>
<path opacity="0.7" d="M1296.42 3842.66C1293.78 3841.14 1292.86 3837.74 1294.37 3835.1C1295.88 3832.46 1299.25 3831.52 1301.92 3833.05C1304.56 3834.57 1305.51 3837.93 1303.97 3840.61C1302.46 3843.25 1299.06 3844.17 1296.42 3842.66Z" fill="white"/>
<path opacity="0.7" d="M1271.75 3885.73C1269.1 3884.21 1268.18 3880.81 1269.69 3878.17C1271.21 3875.53 1274.57 3874.59 1277.25 3876.12C1279.89 3877.64 1280.81 3881.04 1279.3 3883.68C1277.76 3886.35 1274.39 3887.24 1271.75 3885.73Z" fill="white"/>
<path opacity="0.7" d="M1247.05 3928.83C1244.41 3927.32 1243.49 3923.92 1245 3921.28C1246.51 3918.64 1249.88 3917.69 1252.55 3919.23C1255.19 3920.74 1256.13 3924.1 1254.6 3926.78C1253.09 3929.42 1249.69 3930.34 1247.05 3928.83Z" fill="white"/>
<path opacity="0.7" d="M1222.37 3971.9C1219.73 3970.39 1218.81 3966.99 1220.32 3964.35C1221.83 3961.71 1225.2 3960.77 1227.87 3962.3C1230.51 3963.81 1231.44 3967.21 1229.92 3969.85C1228.39 3972.52 1225.01 3973.41 1222.37 3971.9Z" fill="white"/>
<path opacity="0.7" d="M1197.68 4015C1195.04 4013.49 1194.09 4010.13 1195.63 4007.45C1197.16 4004.78 1200.5 4003.87 1203.18 4005.4C1205.82 4006.91 1206.76 4010.28 1205.23 4012.95C1203.7 4015.63 1200.32 4016.52 1197.68 4015Z" fill="white"/>
</g>
<g opacity="0.7">
<path opacity="0.7" d="M1404.17 3554.67C1402.65 3557.32 1403.57 3560.7 1406.22 3562.22C1408.87 3563.74 1412.25 3562.82 1413.77 3560.17C1415.29 3557.52 1414.37 3554.14 1411.72 3552.62C1409.07 3551.1 1405.69 3552.02 1404.17 3554.67Z" fill="white"/>
<path opacity="0.7" d="M1379.49 3597.74C1377.97 3600.39 1378.89 3603.77 1381.54 3605.29C1384.19 3606.81 1387.57 3605.89 1389.09 3603.24C1390.61 3600.59 1389.69 3597.21 1387.04 3595.69C1384.39 3594.17 1381.01 3595.09 1379.49 3597.74Z" fill="white"/>
<path opacity="0.7" d="M1354.79 3640.85C1353.28 3643.5 1354.19 3646.88 1356.84 3648.4C1359.5 3649.92 1362.88 3649 1364.4 3646.35C1365.91 3643.7 1365 3640.31 1362.35 3638.8C1359.69 3637.28 1356.31 3638.19 1354.79 3640.85Z" fill="white"/>
<path opacity="0.7" d="M1330.12 3683.92C1328.6 3686.57 1329.52 3689.95 1332.17 3691.47C1334.82 3692.99 1338.2 3692.07 1339.72 3689.42C1341.24 3686.76 1340.32 3683.38 1337.67 3681.86C1335.02 3680.35 1331.64 3681.26 1330.12 3683.92Z" fill="white"/>
<path opacity="0.7" d="M1305.42 3727.02C1303.9 3729.67 1304.82 3733.05 1307.47 3734.57C1310.12 3736.09 1313.5 3735.17 1315.02 3732.52C1316.54 3729.87 1315.62 3726.49 1312.97 3724.97C1310.32 3723.45 1306.94 3724.37 1305.42 3727.02Z" fill="white"/>
<path opacity="0.7" d="M1282.8 3777.64C1280.15 3776.13 1279.23 3772.73 1280.74 3770.09C1282.26 3767.45 1285.62 3766.51 1288.3 3768.04C1290.97 3769.57 1291.86 3772.95 1290.35 3775.59C1288.83 3778.23 1285.44 3779.15 1282.8 3777.64Z" fill="white"/>
<path opacity="0.7" d="M1256.07 3813.16C1254.55 3815.81 1255.47 3819.19 1258.12 3820.71C1260.77 3822.23 1264.15 3821.31 1265.67 3818.66C1267.19 3816.01 1266.27 3812.63 1263.62 3811.11C1260.97 3809.59 1257.59 3810.51 1256.07 3813.16Z" fill="white"/>
<path opacity="0.7" d="M1233.44 3863.78C1230.8 3862.27 1229.88 3858.87 1231.39 3856.23C1232.9 3853.59 1236.27 3852.65 1238.94 3854.18C1241.62 3855.71 1242.51 3859.09 1240.99 3861.73C1239.46 3864.4 1236.08 3865.29 1233.44 3863.78Z" fill="white"/>
<path opacity="0.7" d="M1206.7 3899.33C1205.18 3901.98 1206.09 3905.36 1208.75 3906.88C1211.4 3908.4 1214.78 3907.48 1216.3 3904.83C1217.82 3902.18 1216.9 3898.8 1214.25 3897.28C1211.6 3895.76 1208.21 3896.68 1206.7 3899.33Z" fill="white"/>
<path opacity="0.7" d="M1184.07 3949.95C1181.43 3948.44 1180.51 3945.04 1182.02 3942.4C1183.53 3939.76 1186.9 3938.82 1189.57 3940.35C1192.24 3941.88 1193.13 3945.26 1191.62 3947.9C1190.09 3950.58 1186.71 3951.47 1184.07 3949.95Z" fill="white"/>
<path opacity="0.7" d="M1157.32 3985.5C1155.8 3988.16 1156.72 3991.54 1159.37 3993.06C1162.02 3994.58 1165.41 3993.66 1166.92 3991.01C1168.44 3988.35 1167.53 3984.97 1164.87 3983.45C1162.22 3981.94 1158.84 3982.85 1157.32 3985.5Z" fill="white"/>
</g>
<g opacity="0.7">
<path opacity="0.7" d="M1367.95 3540.3C1365.31 3538.79 1364.39 3535.39 1365.9 3532.75C1367.41 3530.11 1370.81 3529.18 1373.45 3530.7C1376.09 3532.21 1377.03 3535.57 1375.5 3538.25C1373.95 3540.87 1370.59 3541.81 1367.95 3540.3Z" fill="white"/>
<path opacity="0.7" d="M1343.27 3583.37C1340.63 3581.85 1339.69 3578.49 1341.22 3575.82C1342.73 3573.18 1346.13 3572.25 1348.77 3573.77C1351.41 3575.28 1352.34 3578.68 1350.82 3581.32C1349.26 3583.97 1345.91 3584.88 1343.27 3583.37Z" fill="white"/>
<path opacity="0.7" d="M1318.6 3626.44C1315.95 3624.92 1315.03 3621.53 1316.55 3618.89C1318.06 3616.25 1321.46 3615.32 1324.1 3616.84C1326.74 3618.35 1327.68 3621.71 1326.15 3624.39C1324.58 3627.04 1321.24 3627.95 1318.6 3626.44Z" fill="white"/>
<path opacity="0.7" d="M1293.9 3669.54C1291.26 3668.03 1290.32 3664.66 1291.85 3661.99C1293.36 3659.35 1296.76 3658.43 1299.4 3659.94C1302.04 3661.45 1302.96 3664.85 1301.45 3667.49C1299.9 3670.11 1296.54 3671.05 1293.9 3669.54Z" fill="white"/>
<path opacity="0.7" d="M1269.22 3712.61C1266.58 3711.1 1265.66 3707.7 1267.17 3705.06C1268.69 3702.42 1272.08 3701.5 1274.72 3703.01C1277.36 3704.52 1278.31 3707.89 1276.77 3710.56C1275.21 3713.22 1271.86 3714.12 1269.22 3712.61Z" fill="white"/>
<path opacity="0.7" d="M1244.53 3755.71C1241.89 3754.2 1240.96 3750.8 1242.48 3748.16C1243.99 3745.52 1247.39 3744.6 1250.03 3746.11C1252.67 3747.63 1253.59 3751.02 1252.08 3753.66C1250.53 3756.29 1247.17 3757.23 1244.53 3755.71Z" fill="white"/>
<path opacity="0.7" d="M1219.85 3798.78C1217.21 3797.27 1216.29 3793.87 1217.8 3791.23C1219.31 3788.59 1222.71 3787.67 1225.35 3789.18C1227.99 3790.7 1228.93 3794.06 1227.4 3796.73C1225.85 3799.35 1222.49 3800.3 1219.85 3798.78Z" fill="white"/>
<path opacity="0.7" d="M1195.17 3841.85C1192.53 3840.34 1191.61 3836.94 1193.12 3834.3C1194.64 3831.66 1198.03 3830.74 1200.67 3832.25C1203.31 3833.77 1204.24 3837.16 1202.72 3839.8C1201.16 3842.46 1197.81 3843.37 1195.17 3841.85Z" fill="white"/>
<path opacity="0.7" d="M1170.48 3884.96C1167.84 3883.44 1166.91 3880.05 1168.43 3877.41C1169.94 3874.77 1173.34 3873.84 1175.98 3875.36C1178.62 3876.87 1179.56 3880.23 1178.03 3882.91C1176.48 3885.53 1173.12 3886.47 1170.48 3884.96Z" fill="white"/>
<path opacity="0.7" d="M1145.8 3928.03C1143.16 3926.51 1142.24 3923.12 1143.75 3920.48C1145.26 3917.84 1148.66 3916.91 1151.3 3918.43C1153.94 3919.94 1154.86 3923.34 1153.35 3925.98C1151.78 3928.63 1148.44 3929.54 1145.8 3928.03Z" fill="white"/>
<path opacity="0.7" d="M1121.1 3971.13C1118.46 3969.62 1117.52 3966.25 1119.05 3963.58C1120.59 3960.9 1123.96 3960.02 1126.61 3961.53C1129.25 3963.04 1130.19 3966.41 1128.66 3969.08C1127.12 3971.76 1123.74 3972.64 1121.1 3971.13Z" fill="white"/>
</g>
<g opacity="0.7">
<path opacity="0.7" d="M1327.6 3510.8C1326.08 3513.45 1326.99 3516.83 1329.65 3518.35C1332.3 3519.87 1335.68 3518.95 1337.2 3516.3C1338.72 3513.65 1337.8 3510.27 1335.15 3508.75C1332.5 3507.23 1329.11 3508.15 1327.6 3510.8Z" fill="white"/>
<path opacity="0.7" d="M1302.92 3553.87C1301.4 3556.52 1302.32 3559.9 1304.97 3561.42C1307.62 3562.94 1311 3562.02 1312.52 3559.37C1314.04 3556.72 1313.12 3553.34 1310.47 3551.82C1307.82 3550.3 1304.44 3551.22 1302.92 3553.87Z" fill="white"/>
<path opacity="0.7" d="M1278.22 3596.97C1276.7 3599.63 1277.62 3603.01 1280.27 3604.53C1282.92 3606.05 1286.3 3605.13 1287.82 3602.48C1289.34 3599.82 1288.43 3596.44 1285.77 3594.92C1283.12 3593.41 1279.74 3594.32 1278.22 3596.97Z" fill="white"/>
<path opacity="0.7" d="M1253.55 3640.04C1252.03 3642.7 1252.94 3646.08 1255.6 3647.6C1258.25 3649.11 1261.63 3648.2 1263.15 3645.55C1264.67 3642.89 1263.75 3639.51 1261.1 3637.99C1258.45 3636.47 1255.06 3637.39 1253.55 3640.04Z" fill="white"/>
<path opacity="0.7" d="M1228.85 3683.15C1227.33 3685.8 1228.25 3689.18 1230.9 3690.7C1233.55 3692.22 1236.93 3691.3 1238.45 3688.65C1239.97 3686 1239.05 3682.62 1236.4 3681.1C1233.75 3679.58 1230.37 3680.5 1228.85 3683.15Z" fill="white"/>
<path opacity="0.7" d="M1206.22 3733.77C1203.58 3732.26 1202.66 3728.86 1204.17 3726.22C1205.69 3723.58 1209.08 3722.65 1211.72 3724.17C1214.36 3725.68 1215.29 3729.08 1213.77 3731.72C1212.23 3734.34 1208.86 3735.28 1206.22 3733.77Z" fill="white"/>
<path opacity="0.7" d="M1179.5 3769.29C1177.98 3771.94 1178.9 3775.32 1181.55 3776.84C1184.2 3778.36 1187.58 3777.44 1189.1 3774.79C1190.62 3772.14 1189.7 3768.76 1187.05 3767.24C1184.4 3765.72 1181.02 3766.64 1179.5 3769.29Z" fill="white"/>
<path opacity="0.7" d="M1156.87 3819.91C1154.23 3818.4 1153.31 3815 1154.82 3812.36C1156.33 3809.72 1159.73 3808.79 1162.37 3810.31C1165.01 3811.82 1165.93 3815.22 1164.42 3817.86C1162.85 3820.51 1159.51 3821.42 1156.87 3819.91Z" fill="white"/>
<path opacity="0.7" d="M1130.12 3855.46C1128.6 3858.11 1129.52 3861.49 1132.17 3863.01C1134.83 3864.53 1138.21 3863.61 1139.73 3860.96C1141.24 3858.31 1140.33 3854.93 1137.68 3853.41C1135.02 3851.89 1131.64 3852.81 1130.12 3855.46Z" fill="white"/>
<path opacity="0.7" d="M1107.5 3906.08C1104.86 3904.57 1103.93 3901.17 1105.45 3898.53C1106.96 3895.89 1110.36 3894.97 1113 3896.48C1115.64 3897.99 1116.56 3901.39 1115.05 3904.03C1113.48 3906.69 1110.14 3907.59 1107.5 3906.08Z" fill="white"/>
<path opacity="0.7" d="M1080.75 3941.63C1079.23 3944.29 1080.15 3947.67 1082.8 3949.19C1085.45 3950.7 1088.83 3949.79 1090.35 3947.14C1091.87 3944.48 1090.95 3941.1 1088.3 3939.58C1085.65 3938.06 1082.27 3938.98 1080.75 3941.63Z" fill="white"/>
</g>
</g>
<path d="M605.52 3247.07C591.326 3209.85 565.053 3178.68 539.041 3148.51C513.029 3118.33 486.334 3087.66 471.027 3050.88C455.714 3014.1 453.555 2969.39 475.624 2936.22C518.86 2871.26 618.787 2869.64 674.691 2817.85C692.689 2801.18 705.485 2776.96 702.304 2752.64C697.859 2718.61 662.812 2694.86 628.551 2693.02C594.289 2691.19 561.421 2706.41 532.217 2724.42C509.784 2738.24 488.5 2753.93 468.642 2771.25C443.628 2793.08 419.38 2818.39 387.346 2827.13C346.735 2838.2 329.582 2821.33 318.938 2796.38L154 3084.26L593.582 3336.12L616.315 3296.44C615.108 3279.58 611.552 3262.89 605.52 3247.07Z" fill="#F9C22E"/>
<path d="M1672.33 3430.67C1463.16 3430.67 1293 3260.51 1293 3051.33C1293 2842.16 1463.16 2672 1672.33 2672C1881.51 2672 2051.67 2842.16 2051.67 3051.33C2051.62 3260.51 1881.46 3430.67 1672.33 3430.67ZM1672.33 2676.79C1465.77 2676.79 1297.75 2844.82 1297.75 3051.38C1297.75 3257.94 1465.77 3425.97 1672.33 3425.97C1878.9 3425.97 2046.92 3257.94 2046.92 3051.38C2046.92 2844.82 1878.85 2676.79 1672.33 2676.79Z" fill="#E01A4F"/>
<path d="M1672.33 3394.04C1483.38 3394.04 1329.63 3240.29 1329.63 3051.33C1329.63 2862.38 1483.38 2708.63 1672.33 2708.63C1861.29 2708.63 2015.04 2862.38 2015.04 3051.33C2015.04 3240.34 1861.29 3394.04 1672.33 3394.04ZM1672.33 2718.17C1488.6 2718.17 1339.12 2867.65 1339.12 3051.38C1339.12 3235.12 1488.6 3384.59 1672.33 3384.59C1856.07 3384.59 2005.55 3235.12 2005.55 3051.38C2005.55 2867.65 1856.07 2718.17 1672.33 2718.17Z" fill="#E01A4F"/>
<path d="M1672.33 3298.89C1535.86 3298.89 1424.82 3187.86 1424.82 3051.38C1424.82 2914.91 1535.86 2803.87 1672.33 2803.87C1808.81 2803.87 1919.85 2914.91 1919.85 3051.38C1919.85 3187.86 1808.81 3298.89 1672.33 3298.89ZM1672.33 2813.31C1541.08 2813.31 1434.31 2920.08 1434.31 3051.34C1434.31 3182.59 1541.08 3289.36 1672.33 3289.36C1803.59 3289.36 1910.36 3182.59 1910.36 3051.34C1910.36 2920.13 1803.59 2813.31 1672.33 2813.31Z" fill="#E01A4F"/>
<path d="M1672.33 3256.33C1559.3 3256.33 1467.34 3164.37 1467.34 3051.33C1467.34 2938.3 1559.3 2846.34 1672.33 2846.34C1785.37 2846.34 1877.33 2938.3 1877.33 3051.33C1877.33 3164.41 1785.37 3256.33 1672.33 3256.33ZM1672.33 2851.09C1561.91 2851.09 1472.09 2940.91 1472.09 3051.33C1472.09 3161.76 1561.91 3251.58 1672.33 3251.58C1782.76 3251.58 1872.58 3161.76 1872.58 3051.33C1872.58 2940.96 1782.76 2851.09 1672.33 2851.09Z" fill="#E01A4F"/>
<path d="M1672.33 3178.89C1602.01 3178.89 1544.83 3121.71 1544.83 3051.38C1544.83 2981.06 1602.01 2923.88 1672.33 2923.88C1742.66 2923.88 1799.84 2981.06 1799.84 3051.38C1799.84 3121.66 1742.61 3178.89 1672.33 3178.89ZM1672.33 2933.32C1607.28 2933.32 1554.32 2986.28 1554.32 3051.34C1554.32 3116.39 1607.28 3169.35 1672.33 3169.35C1737.39 3169.35 1790.35 3116.39 1790.35 3051.34C1790.35 2986.28 1737.39 2933.32 1672.33 2933.32Z" fill="#E01A4F"/>
<path d="M1672.33 3114.73C1637.41 3114.73 1608.99 3086.31 1608.99 3051.38C1608.99 3016.46 1637.41 2987.99 1672.33 2987.99C1707.26 2987.99 1735.73 3016.41 1735.73 3051.38C1735.68 3086.31 1707.26 3114.73 1672.33 3114.73ZM1672.33 2992.73C1640.02 2992.73 1613.73 3019.02 1613.73 3051.38C1613.73 3083.75 1640.02 3109.99 1672.33 3109.99C1704.65 3109.99 1730.99 3083.7 1730.99 3051.38C1730.99 3019.07 1704.65 2992.73 1672.33 2992.73Z" fill="#E01A4F"/>
<g filter="url(#filter0_d_0_1)">
<path d="M507.242 2047.14C505.51 2052.96 501.977 2056.04 495.694 2054.41C489.47 2052.8 485.813 2047.62 483.245 2040.1C479.136 2044.61 474.612 2047.32 468.011 2043.16C462.352 2039.59 459.908 2034.21 459.454 2027.85C459.51 2027.24 459.579 2026.66 459.635 2026.06C460.369 2023.25 461.423 2020.3 463.847 2019.6C468.272 2018.3 466.136 2016.37 464.152 2012.65C461.394 2007.52 459.767 2005.73 456.119 2009.07C454.782 2010.28 451.954 2009.55 449.811 2009.7C449.013 2009.38 448.216 2009.06 447.431 2008.76C442.219 2005.15 438.463 2000.54 438.079 1993.93C437.654 1986.59 441.534 1983.56 447.782 1982.26C442.345 1976.28 438.907 1970.22 440.931 1963.57C442.681 1957.89 446.921 1956.44 452.528 1957.58C453.09 1957.81 453.635 1958.05 454.196 1958.27C456.404 1960.24 459.562 1961.87 460.617 1964.21C463.479 1970.54 464.905 1968.2 468.141 1966.67C472.033 1964.83 471.53 1963.32 468.878 1959.2C467.363 1956.86 467.282 1953.59 466.535 1950.73C466.594 1950.1 466.639 1949.44 466.698 1948.81C468.321 1942.85 471.893 1939.83 478.136 1941.4C484.363 1942.97 488.091 1948.05 490.632 1955.53C494.811 1951.42 499.184 1948.36 505.857 1952.56C511.517 1956.13 513.993 1961.5 514.571 1967.84C514.504 1968.57 514.423 1969.28 514.372 1970C513.139 1972.07 512.437 1975.19 510.556 1975.98C506.492 1977.69 507.619 1979.42 510.249 1983.61C512.799 1987.68 513.818 1989.75 517.239 1986.88C518.8 1985.56 521.911 1986.38 524.299 1986.24C524.978 1986.51 525.657 1986.79 526.353 1987.05C532.059 1990.62 535.796 1995.6 535.984 2002.52C536.162 2009.37 532.725 2012.58 526.443 2013.43C531.627 2019.65 535.271 2025.98 532.958 2032.77C531.173 2037.99 527.096 2039.35 521.857 2038.51C521.001 2038.17 520.16 2037.81 519.317 2037.49C515.289 2034.99 512.357 2031.25 510.292 2026.74C504.634 2029.12 500.451 2031.95 506.615 2040.83C507.359 2041.9 507.182 2043.65 507.416 2045.09C507.365 2045.81 507.303 2046.48 507.242 2047.14ZM519.103 2010.8C514.655 2010.2 516.245 1998.79 509.595 2002.79C506.204 2004.84 506.353 2006.87 508.954 2011.05C514.392 2019.84 514.881 2008.09 519.103 2010.8ZM484.019 2032.39C483.818 2027.94 495.256 2031.8 487.477 2021.66C481.282 2013.61 481.358 2022.89 477.744 2022.05C480.865 2025.08 481.727 2028.68 484.019 2032.39ZM490.508 1963.5C483.332 1969.38 483.553 1969.31 484.816 1971.88C489.229 1980.82 492.246 1975.03 496.76 1974.09C493.247 1970.83 492.138 1967.08 490.508 1963.5ZM454.786 1984.7C457.567 1988.27 459.852 1991.39 461.676 1995.36C462.251 1991.45 470.499 1995.2 466.013 1986.22C460.452 1975.11 458.935 1987.55 454.786 1984.7ZM483.585 1999.13C485.085 2001.3 485.788 2005.29 488.655 2002.28C490.113 2000.76 493.365 2001.05 490.118 1996.39C487.914 1993.23 486.999 1992.02 484.337 1993.98C482.333 1995.44 480.65 1996.08 483.585 1999.13Z" fill="white"/>
<path d="M454.229 1958.25C453.667 1958.03 453.122 1957.79 452.561 1957.57C452.193 1957.07 451.882 1956.45 451.457 1956.09C445.854 1951.41 442.382 1945.87 443.839 1939.06C445.025 1933.52 448.762 1931.21 454.236 1932.65C460.952 1934.4 464.323 1940.03 465.98 1947.12C466.114 1947.67 466.505 1948.24 466.776 1948.79C466.718 1949.42 466.672 1950.08 466.614 1950.71C463.844 1955.48 459.694 1957.96 454.229 1958.25Z" fill="white"/>
<path d="M526.366 1987.07C525.687 1986.8 525.008 1986.53 524.312 1986.26C519.261 1981.9 515.994 1976.48 514.385 1970.02C514.453 1969.29 514.533 1968.58 514.584 1967.87C515.567 1966.52 516.437 1965.06 517.572 1963.89C520.788 1960.58 524.826 1959.81 529.799 1963.02C534.338 1965.96 537.012 1970.34 537.573 1975.71C538.179 1981.59 535.655 1984.86 531.24 1986.22C529.723 1986.72 528.014 1986.81 526.366 1987.07Z" fill="white"/>
<path d="M519.314 2037.52C520.171 2037.87 521.011 2038.22 521.855 2038.54C522.886 2039.65 523.931 2040.77 524.946 2041.89C529.318 2046.63 531.609 2051.84 530.073 2057.35C528.656 2062.41 525.077 2064.51 519.917 2063.32C514.307 2062.03 510.785 2057.54 508.697 2051.46C508.201 2050.03 507.738 2048.58 507.242 2047.14C507.304 2046.48 507.352 2045.79 507.413 2045.13C510.023 2040.42 514.09 2038.03 519.314 2037.52Z" fill="white"/>
<path d="M459.651 2026.05C459.595 2026.65 459.526 2027.23 459.47 2027.84C455.913 2032.85 452.205 2037.66 444.359 2032.88C439.79 2030.11 437.04 2025.72 436.482 2020.32C435.556 2011.11 441.369 2009.71 447.437 2008.69C448.235 2009.01 449.033 2009.33 449.817 2009.63C454.745 2014.16 457.926 2019.69 459.651 2026.05Z" fill="white"/>
<path d="M556.279 2003.87C560.035 2009.8 559.309 2017.66 554.778 2020.28C550.474 2022.76 543.604 2020.02 540.036 2014.36C536.266 2008.41 536.99 2000.58 541.537 1997.96C545.838 1995.51 552.708 1998.24 556.279 2003.87Z" fill="white"/>
<path d="M475.818 2068.41C471.442 2071.18 464.151 2068.19 460.691 2062.2C457.375 2056.48 458.107 2049.21 462.273 2046.58C466.649 2043.81 473.94 2046.8 477.4 2052.79C480.733 2058.5 479.984 2065.78 475.818 2068.41Z" fill="white"/>
<path d="M500.995 2061.7C504.793 2067.51 504.188 2075.39 499.739 2078.11C495.534 2080.68 488.685 2078.04 485.06 2072.51C481.262 2066.7 481.867 2058.83 486.316 2056.11C490.537 2053.53 497.373 2056.14 500.995 2061.7Z" fill="white"/>
<path d="M511.207 1949.71C506.5 1952.08 499.272 1948.58 496.12 1942.4C493.072 1936.42 494.251 1929.3 498.637 1927.1C503.344 1924.73 510.585 1928.26 513.723 1934.42C516.787 1940.38 515.609 1947.5 511.207 1949.71Z" fill="white"/>
<path d="M418.829 1975.97C422.852 1973.21 429.698 1975.55 433.499 1981C437.435 1986.64 437.112 1994.61 432.81 1997.57C428.556 2000.5 421.261 1997.72 417.645 1991.76C414.214 1986.11 414.757 1978.76 418.829 1975.97Z" fill="white"/>
<path d="M489.198 1923.81C492.841 1929.81 491.954 1937.59 487.348 1940.01C482.951 1942.34 476.141 1939.45 472.685 1933.75C469.042 1927.76 469.929 1919.98 474.534 1917.55C478.932 1915.22 485.755 1918.14 489.198 1923.81Z" fill="white"/>
<path d="M421.532 1950.03C425.978 1947.35 433.244 1950.44 436.639 1956.47C439.904 1962.25 439.066 1969.49 434.85 1972.01C430.405 1974.69 423.139 1971.6 419.727 1965.58C416.492 1959.81 417.317 1952.55 421.532 1950.03Z" fill="white"/>
<path d="M553.921 2029.71C557.645 2035.66 556.863 2043.46 552.321 2046.03C547.99 2048.47 541.155 2045.68 537.634 2040.02C533.91 2034.08 534.676 2026.28 539.247 2023.73C543.578 2021.29 550.383 2024.07 553.921 2029.71Z" fill="white"/>
<path d="M509.023 2080.75C505.883 2074.11 506.478 2069.17 511.193 2066.38C515.698 2063.72 522.075 2066.82 525.18 2073.17C528.424 2079.83 527.432 2084.78 522.538 2087.17C517.534 2089.6 512.906 2086.81 509.023 2080.75Z" fill="white"/>
<path d="M556.807 1993.68C551.831 1995.97 547.137 1994.38 543.051 1988.21C539.167 1982.33 539.876 1975.31 544.624 1973.01C549.579 1970.61 554.49 1972.66 558.225 1978.99C562.003 1985.36 561.115 1990.33 556.807 1993.68Z" fill="white"/>
<path d="M452.558 2043.12C456.006 2049.57 455.994 2054.84 451.248 2057.8C446.55 2060.73 441.607 2058.85 437.657 2052.53C433.736 2046.22 434.166 2040.91 438.824 2037.91C443.544 2034.91 448.284 2037.15 452.558 2043.12Z" fill="white"/>
<path d="M551.004 2055.81C554.429 2062.18 554.456 2067.51 549.868 2070.59C545.314 2073.61 540.393 2071.83 536.141 2065.79C532.079 2060.02 532.598 2052.91 537.212 2050.39C542.067 2047.75 546.714 2049.85 551.004 2055.81Z" fill="white"/>
<path d="M535.084 1958.39C530.025 1960.58 525.326 1958.88 521.321 1952.65C517.519 1946.72 518.333 1939.74 523.16 1937.56C528.195 1935.29 533.082 1937.45 536.738 1943.8C540.432 1950.24 539.412 1955.14 535.084 1958.39Z" fill="white"/>
<path d="M417.557 2002.16C422.666 2000.09 427.447 2001.89 431.141 2008.34C434.848 2014.8 434.09 2020.02 429.264 2022.67C424.39 2025.35 419.47 2023.07 415.757 2016.66C411.991 2010.17 413.096 2005.34 417.557 2002.16Z" fill="white"/>
<path d="M438.069 1930.39C441.624 1937.33 441.445 1942.59 436.621 1945.39C431.814 1948.17 426.844 1946.1 423.023 1939.7C419.202 1933.3 419.799 1928.01 424.551 1925.16C429.383 1922.27 434.078 1924.84 438.069 1930.39Z" fill="white"/>
<path d="M464.649 1914.62C468.003 1921.09 467.763 1926.17 463.188 1929.27C458.824 1932.24 452.382 1929.5 449.069 1923.25C445.611 1916.75 446.255 1911.6 451.021 1908.92C455.836 1906.22 460.529 1908.65 464.649 1914.62Z" fill="white"/>
<path d="M496.547 2102.04C492.021 2103.94 487.478 2102.71 483.974 2097.19C480.499 2091.69 480.888 2086.49 484.932 2083.84C488.993 2081.18 493.83 2083.03 497.307 2088.5C500.844 2094 499.982 2098.68 496.547 2102.04Z" fill="white"/>
<path d="M546.848 2095.64C542.373 2097.48 537.814 2096.26 534.297 2090.72C530.809 2085.2 531.217 2079.95 535.248 2077.28C539.324 2074.61 544.191 2076.48 547.698 2081.96C551.274 2087.52 550.426 2092.23 546.848 2095.64Z" fill="white"/>
<path d="M547.713 1948.04C551.891 1946.59 556.217 1948.01 559.838 1953.43C563.106 1958.34 562.22 1965.61 558.138 1967.17C553.643 1968.9 549.21 1966.98 545.768 1961.46C542.802 1956.75 543.785 1950.26 547.713 1948.04Z" fill="white"/>
<path d="M427.934 2033.92C430.768 2040.05 430.677 2045.01 426.443 2047.39C422.243 2049.75 417.449 2047.75 414.167 2042.16C410.898 2036.59 411.477 2031.48 415.668 2029.07C419.891 2026.64 424.284 2029.15 427.934 2033.92Z" fill="white"/>
<path d="M427.171 1900.29C431.615 1898.44 436.159 1899.68 439.63 1905.21C443.104 1910.71 442.699 1915.92 438.642 1918.55C434.568 1921.19 429.747 1919.32 426.27 1913.85C422.766 1908.34 423.611 1903.67 427.171 1900.29Z" fill="white"/>
<path d="M411.025 1947.03C413.884 1952.73 413.96 1957.71 409.899 1960.37C405.842 1963 401.047 1961.18 397.583 1955.73C394.106 1950.26 394.508 1945.08 398.536 1942.44C402.583 1939.75 407.022 1941.95 411.025 1947.03Z" fill="white"/>
<path d="M576.845 2040.4C579.53 2046.33 579.479 2051.35 575.214 2053.75C570.98 2056.13 566.128 2054.1 562.819 2048.47C559.539 2042.85 560.095 2037.66 564.331 2035.25C568.57 2032.81 573.035 2035.23 576.845 2040.4Z" fill="white"/>
<path d="M477.499 1893.76C481.974 1891.92 486.533 1893.14 490.05 1898.68C493.538 1904.2 493.13 1909.44 489.07 1912.11C484.993 1914.78 480.113 1912.88 476.622 1907.39C473.072 1901.88 473.921 1897.17 477.499 1893.76Z" fill="white"/>
<path d="M460.935 2073.98C465.737 2072.24 470.263 2073.66 473.542 2079.28C476.811 2084.85 476.262 2089.97 472.071 2092.38C467.884 2094.76 463.107 2092.75 459.792 2087.18C456.453 2081.53 457.559 2077.03 460.935 2073.98Z" fill="white"/>
<path d="M513.129 1921.95C508.655 1923.79 504.082 1922.55 500.581 1917C497.093 1911.48 497.501 1906.24 501.578 1903.56C505.654 1900.89 510.518 1902.8 514.025 1908.28C517.569 1913.86 516.704 1918.57 513.129 1921.95Z" fill="white"/>
<path d="M408.566 1972.64C411.489 1978.48 411.578 1983.48 407.505 1986.12C403.447 1988.75 398.639 1986.9 395.175 1981.45C391.698 1975.98 392.113 1970.82 396.128 1968.16C400.207 1965.46 404.654 1967.73 408.566 1972.64Z" fill="white"/>
<path d="M579.27 2014.67C581.917 2020.5 581.756 2025.23 577.775 2028.02C574.184 2030.57 567.354 2027.57 564.837 2022.32C562.092 2016.55 562.522 2011.57 566.819 2009.33C571.113 2007.12 575.518 2009.51 579.27 2014.67Z" fill="white"/>
<path d="M526.303 1913.66C530.692 1911.76 534.723 1913.39 537.842 1918.93C540.984 1924.55 540.111 1928.85 535.918 1930.96C531.981 1932.95 528.016 1931.1 524.978 1926.02C521.687 1920.52 522.482 1916.39 526.303 1913.66Z" fill="white"/>
<path d="M579.936 2001.49C575.395 2003.55 571.373 2002.15 568.152 1996.73C564.93 1991.31 565.415 1986.89 569.449 1984.51C573.499 1982.13 577.624 1983.91 580.897 1989.27C584.234 1994.77 583.293 1998.81 579.936 2001.49Z" fill="white"/>
<path d="M447.57 2082.18C443.219 2084 439.234 2082.37 436.175 2076.85C433.076 2071.27 433.972 2067.04 438.146 2064.97C442.08 2063.02 445.98 2064.91 448.946 2069.94C452.221 2075.45 451.372 2079.5 447.57 2082.18Z" fill="white"/>
<path d="M454.154 1884.97C458.401 1882.94 462.426 1884.31 465.671 1889.8C468.914 1895.33 468.254 1899.65 464.151 1901.95C460.307 1904.09 456.37 1902.42 453.232 1897.44C449.827 1892.01 450.413 1887.82 454.154 1884.97Z" fill="white"/>
<path d="M405.016 2011.06C400.595 2013.31 396.585 2012.11 393.259 2006.67C389.961 2001.24 390.441 1996.88 394.507 1994.48C398.268 1992.24 402.171 1993.77 405.394 1998.68C408.912 2004.04 408.3 2008.18 405.016 2011.06Z" fill="white"/>
<path d="M573.76 2066.33C576.802 2072.37 576.341 2076.69 572.129 2078.84C567.851 2081.04 563.706 2078.82 560.692 2073.3C557.848 2068.1 558.553 2063.96 562.343 2061.74C566.55 2059.31 570.447 2061.57 573.76 2066.33Z" fill="white"/>
<path d="M520.046 2110.82C515.483 2112.95 511.451 2111.5 508.254 2105.98C505.044 2100.43 505.763 2096.14 509.893 2093.88C513.763 2091.79 517.677 2093.52 520.8 2098.52C524.258 2104.03 523.393 2108.09 520.046 2110.82Z" fill="white"/>
<path d="M413.079 1922.15C415.885 1927.77 415.46 1932.03 411.263 1934.18C407.018 1936.36 402.945 1934.18 399.958 1928.71C397.141 1923.55 397.826 1919.45 401.611 1917.29C405.739 1914.89 409.638 1916.96 413.079 1922.15Z" fill="white"/>
<path d="M581.558 1974.99C577.382 1976.26 573.534 1974.96 570.995 1970.11C568.519 1965.41 569.127 1961.15 572.927 1959.48C576.313 1957.98 580.093 1959.68 582.601 1964.04C585.332 1968.8 584.346 1972.51 581.558 1974.99Z" fill="white"/>
<path d="M423.232 2071.36C419.592 2072.96 415.902 2071.78 413.123 2067.05C410.579 2062.74 410.965 2058.74 414.15 2056.76C417.611 2054.61 421.494 2056.19 424.29 2060.91C426.804 2065.2 426.176 2068.85 423.232 2071.36Z" fill="white"/>
<path d="M430.602 1876.43C433.843 1874.83 437.375 1875.58 440.318 1879.7C443.53 1884.23 443.403 1888.58 440.105 1890.95C436.774 1893.35 432.767 1891.79 429.857 1887.14C427.174 1882.86 427.732 1879.14 430.602 1876.43Z" fill="white"/>
<path d="M560.839 1928.17C563.269 1932.88 563.399 1937.1 559.978 1939.32C556.573 1941.52 552.558 1939.87 549.675 1935.27C547.034 1931.02 547.356 1926.87 550.316 1924.68C553.605 1922.25 557.352 1923.96 560.839 1928.17Z" fill="white"/>
<path d="M392.395 2021.31C395.591 2019.72 399.063 2020.43 401.993 2024.54C405.179 2029.02 405.071 2033.33 401.789 2035.7C398.477 2038.05 394.539 2036.57 391.63 2031.92C388.976 2027.65 389.499 2023.98 392.395 2021.31Z" fill="white"/>
<path d="M544.19 2108.48C546.577 2113.15 546.665 2117.34 543.236 2119.47C539.824 2121.58 535.868 2119.96 533.047 2115.35C530.452 2111.1 530.814 2107.02 533.785 2104.88C537.067 2102.51 540.772 2104.2 544.19 2108.48Z" fill="white"/>
<path d="M414.45 1896.38C416.762 1900.7 416.902 1904.66 413.903 1906.94C410.609 1909.43 406.598 1908.08 403.636 1903.49C400.646 1898.89 401.057 1894.6 404.577 1892.48C407.803 1890.57 411.321 1892.28 414.45 1896.38Z" fill="white"/>
<path d="M569.647 2103.53C565.911 2105.01 562.124 2103.89 559.371 2099.2C556.644 2094.56 557.188 2090.34 560.723 2088.38C563.949 2086.62 567.744 2088.16 570.391 2092.34C573.319 2096.95 572.658 2100.8 569.647 2103.53Z" fill="white"/>
<path d="M600.214 2035.18C596.738 2036.83 593.482 2035.59 590.887 2031.01C588.529 2026.86 588.98 2023.48 592.026 2021.67C595.414 2019.66 598.764 2021.21 601.349 2025.73C603.766 2029.9 603.107 2033.05 600.214 2035.18Z" fill="white"/>
<path d="M481.088 1870.84C484.774 1868.92 487.994 1869.88 490.716 1874.41C493.158 1878.48 492.904 1881.89 489.937 1883.82C486.692 1885.96 483.38 1884.66 480.649 1880.23C478.15 1876.11 478.79 1872.99 481.088 1870.84Z" fill="white"/>
<path d="M589.689 2047.3C592.954 2045.78 596.05 2046.76 598.614 2050.84C601.39 2055.28 601.102 2058.89 597.731 2060.89C594.668 2062.7 591.491 2061.45 588.908 2057.4C586.089 2052.94 586.601 2049.54 589.689 2047.3Z" fill="white"/>
<path d="M505.082 1880.4C508.768 1878.48 512.017 1879.45 514.753 1884C517.208 1888.09 516.967 1891.53 513.968 1893.48C510.706 1895.62 507.349 1894.33 504.608 1889.84C502.093 1885.73 502.706 1882.57 505.082 1880.4Z" fill="white"/>
<path d="M385.261 1938.89C387.417 1943.07 387.32 1946.45 384.254 1948.29C380.88 1950.33 377.503 1948.74 375.026 1944.21C372.73 1940.06 373.358 1936.74 376.484 1935.07C379.643 1933.38 382.634 1934.99 385.261 1938.89Z" fill="white"/>
<path d="M460.383 2102.16C463.653 2100.76 466.74 2101.83 469.22 2106C471.936 2110.59 471.333 2114.13 467.821 2115.83C464.596 2117.41 461.414 2115.7 459.088 2111.53C456.755 2107.28 457.47 2104.18 460.383 2102.16Z" fill="white"/>
<path d="M466.271 1864.59C468.263 1868.39 468.377 1871.79 465.77 1873.65C462.867 1875.73 459.45 1874.41 456.994 1870.31C454.791 1866.64 455.183 1863.23 457.9 1861.51C460.663 1859.79 463.618 1861.3 466.271 1864.59Z" fill="white"/>
<path d="M387.268 1913.2C389.06 1917.01 389.145 1920.39 386.447 1922.07C383.473 1923.92 380.049 1922.51 377.78 1918.4C375.773 1914.75 376.181 1911.33 379.018 1909.81C381.839 1908.29 384.741 1909.87 387.268 1913.2Z" fill="white"/>
<path d="M484.177 2111.9C487.37 2110.34 490.488 2111.24 493.065 2115.35C495.868 2119.83 495.472 2123.45 492.021 2125.32C488.859 2127.04 485.676 2125.52 483.252 2121.41C480.789 2117.23 481.357 2114.07 484.177 2111.9Z" fill="white"/>
<path d="M602.399 2009.05C599.16 2010.29 595.973 2009.3 593.633 2005.11C591.557 2001.39 591.917 1998 594.671 1996.37C597.731 1994.59 601.063 1996 603.421 2000.15C605.54 2003.91 604.877 2006.94 602.399 2009.05Z" fill="white"/>
<path d="M436.099 2093.26C439.271 2091.92 442.312 2092.66 444.635 2096.2C447.213 2100.13 446.903 2103.82 443.862 2105.56C441.143 2107.13 437.948 2105.73 435.71 2102.11C433.418 2098.39 434.243 2095.44 436.099 2093.26Z" fill="white"/>
<path d="M382.114 1974.09C378.526 1975.63 375.446 1974.64 372.977 1970.53C370.255 1966 370.812 1962.46 374.281 1960.73C377.46 1959.14 380.619 1960.77 382.964 1964.9C385.362 1969.12 384.473 1972.11 382.114 1974.09Z" fill="white"/>
<path d="M537.27 1903.07C533.969 1903.98 530.774 1902.92 528.64 1898.66C526.776 1894.95 527.227 1891.57 530.098 1890.17C533.24 1888.67 536.56 1890.2 538.7 1894.39C540.62 1898.15 539.897 1901.17 537.27 1903.07Z" fill="white"/>
<path d="M517.135 2125.58C518.83 2129.45 518.8 2132.76 516.013 2134.4C513.243 2136.03 510.033 2134.8 507.781 2131.15C505.277 2127.09 505.689 2123.45 508.855 2121.85C511.67 2120.4 514.656 2122.07 517.135 2125.58Z" fill="white"/>
<path d="M587.133 2073.62C590.672 2072.29 593.836 2073.2 596.197 2077.32C598.279 2080.98 597.949 2084.38 595.225 2086.02C592.224 2087.82 588.921 2086.43 586.524 2082.36C584.383 2078.68 585.267 2075.75 587.133 2073.62Z" fill="white"/>
<path d="M380.193 1990.58C381.898 1994.5 381.879 1997.86 378.996 1999.39C376.175 2000.9 372.947 1999.52 370.796 1995.78C368.674 1992.06 369.053 1988.63 371.892 1987.07C374.729 1985.55 377.688 1987.18 380.193 1990.58Z" fill="white"/>
<path d="M583.351 1938.85C585.271 1942.61 585.155 1945.52 582.596 1947.02C580.036 1948.53 577.216 1947.38 575.173 1943.96C573.13 1940.55 573.438 1937.55 575.984 1936.02C578.546 1934.49 581.176 1935.87 583.351 1938.85Z" fill="white"/>
<path d="M592.237 2102.77C594.122 2106.07 594.227 2108.58 592.341 2110.09C590.19 2111.82 587.636 2111.11 585.585 2107.94C583.548 2104.79 583.87 2102.14 586.267 2100.73C588.42 2099.48 590.549 2100.81 592.237 2102.77Z" fill="white"/>
<path d="M558.646 2124.28C556.69 2120.25 557.04 2117.46 559.746 2116.2C562.5 2114.9 565.204 2116.48 566.993 2119.99C568.589 2123.11 568.16 2125.77 565.801 2127.09C563.15 2128.59 560.653 2127.09 558.646 2124.28Z" fill="white"/>
<path d="M539.83 2135.6C541.406 2138.77 541.365 2141.36 538.931 2142.67C536.822 2143.78 534.491 2142.81 532.828 2140.09C530.925 2136.98 531.217 2134.32 533.605 2133.01C535.704 2131.85 537.877 2133.03 539.83 2135.6Z" fill="white"/>
<path d="M388.539 1888.17C389.927 1891.06 389.97 1893.57 387.921 1894.86C385.58 1896.32 382.986 1895.21 381.265 1891.96C379.791 1889.18 380.133 1886.64 382.334 1885.53C384.473 1884.43 386.632 1885.6 388.539 1888.17Z" fill="white"/>
<path d="M415.315 1871.77C417.332 1875.8 416.779 1878.47 414.03 1879.71C411.539 1880.81 409.027 1879.47 407.284 1876.29C405.251 1872.6 405.944 1869.9 408.693 1868.67C411.174 1867.52 413.531 1869.04 415.315 1871.77Z" fill="white"/>
<path d="M441.237 1855.66C442.891 1859.32 442.68 1861.93 440.175 1863.01C438.038 1863.93 435.654 1862.87 434.123 1860.04C432.366 1856.84 432.806 1854.24 435.284 1853.11C437.444 1852.12 439.594 1853.56 441.237 1855.66Z" fill="white"/>
<path d="M376.603 2016.82C378.023 2019.69 378.08 2022.22 376.061 2023.52C373.746 2025.02 371.166 2023.94 369.382 2020.69C367.862 2017.91 368.218 2015.39 370.362 2014.23C372.534 2013.11 374.694 2014.28 376.603 2016.82Z" fill="white"/>
<path d="M561.012 1903.43C562.979 1907.01 562.928 1909.55 560.557 1911C558.495 1912.26 556.238 1911.49 554.413 1908.86C552.341 1905.91 552.257 1903.18 554.481 1901.5C556.734 1899.82 559.042 1901.04 561.012 1903.43Z" fill="white"/>
<path d="M398.597 2052C400.471 2055.43 400.307 2058.19 397.63 2059.65C395.258 2060.95 392.811 2059.9 390.906 2056.82C388.747 2053.33 389.08 2050.55 391.745 2049.07C394.119 2047.74 396.462 2048.91 398.597 2052Z" fill="white"/>
<path d="M419.916 2087.69C421.258 2090.57 421.285 2093.1 419.196 2094.32C416.815 2095.71 414.224 2094.57 412.536 2091.3C411.107 2088.52 411.482 2085.96 413.693 2084.91C415.872 2083.88 418.061 2085.05 419.916 2087.69Z" fill="white"/>
<path d="M604.468 1974.57C606.198 1977.72 606.16 1980.29 603.79 1981.74C601.728 1983 599.471 1982.23 597.645 1979.6C595.574 1976.65 595.476 1973.9 597.714 1972.23C599.932 1970.61 602.276 1971.6 604.468 1974.57Z" fill="white"/>
</g>
<path d="M1378.35 1781.43L1450.01 1776.3L1455.51 1847.96L1527.17 1842.83L1532.65 1914.46L1595.86 1909.94L1600.72 1973.14L1672.38 1968.01L1677.88 2039.66L1749.54 2034.53L1755.02 2106.17L1826.16 2101.08L1825.57 2093.12L1762.37 2097.65L1756.88 2026.02L1685.22 2031.15L1679.72 1959.49L1608.06 1964.62L1603.22 1901.4L1540 1905.95L1534.52 1834.31L1462.85 1839.44L1457.35 1767.79L1385.69 1772.92L1380.83 1709.71L1372.91 1710.32L1378.35 1781.43Z" fill="#498467"/>
<path d="M1319.18 1850.06L1390.85 1844.93L1396.35 1916.58L1468.01 1911.45L1473.49 1983.09L1530.34 1979.01L1537.73 1970.49L1480.83 1974.57L1475.35 1902.94L1403.69 1908.07L1398.19 1836.41L1326.53 1841.54L1321.67 1778.34L1313.72 1778.97L1319.18 1850.06Z" fill="#FF9D00"/>
<path d="M1591.69 139.174L1557.72 139.052L1591.52 173.145L1591.69 139.174Z" fill="#F9C22E"/>
<path d="M1642.36 190.289L1608.39 190.166L1642.18 224.259L1642.36 190.289Z" fill="#F9C22E"/>
<path d="M1693.03 241.403L1659.06 241.28L1692.85 275.374L1693.03 241.403Z" fill="#F9C22E"/>
<path d="M1743.69 292.517L1709.72 292.394L1743.52 326.488L1743.69 292.517Z" fill="#F9C22E"/>
<path d="M1794.36 343.631L1760.39 343.508L1794.19 377.602L1794.36 343.631Z" fill="#F9C22E"/>
<path d="M1845.03 394.746L1811.06 394.623L1844.86 428.716L1845.03 394.746Z" fill="#F9C22E"/>
<path d="M1694.54 138.561L1660.6 138.412L1694.39 172.506L1694.54 138.561Z" fill="#F9C22E"/>
<path d="M1745.21 189.675L1711.26 189.527L1745.06 223.62L1745.21 189.675Z" fill="#F9C22E"/>
<path d="M1795.88 240.79L1761.93 240.641L1795.73 274.734L1795.88 240.79Z" fill="#F9C22E"/>
<path d="M1846.55 291.904L1812.6 291.755L1846.4 325.849L1846.55 291.904Z" fill="#F9C22E"/>
<path d="M1797.42 137.922L1763.47 137.773L1797.27 171.867L1797.42 137.922Z" fill="#F9C22E"/>
<path d="M1848.09 189.036L1814.14 188.887L1847.94 222.981L1848.09 189.036Z" fill="#F9C22E"/>
<path d="M1644.61 137.408L1610.67 137.259L1644.47 171.353L1644.61 137.408Z" fill="#F9C22E"/>
<path d="M1695.28 188.522L1661.31 188.347L1695.13 222.467L1695.28 188.522Z" fill="#F9C22E"/>
<path d="M1745.95 239.636L1711.98 239.462L1745.8 273.581L1745.95 239.636Z" fill="#F9C22E"/>
<path d="M1796.59 290.725L1762.65 290.576L1796.47 324.695L1796.59 290.725Z" fill="#F9C22E"/>
<path d="M1847.26 341.839L1813.32 341.69L1847.14 375.81L1847.26 341.839Z" fill="#F9C22E"/>
<path d="M1745.98 138.267L1712.01 138.093L1745.83 172.212L1745.98 138.267Z" fill="#F9C22E"/>
<path d="M1796.65 189.382L1762.68 189.207L1796.5 223.326L1796.65 189.382Z" fill="#F9C22E"/>
<path d="M1847.29 240.47L1813.35 240.321L1847.17 274.441L1847.29 240.47Z" fill="#F9C22E"/>
<path d="M1850.66 135.845L1816.68 135.671L1850.51 169.79L1850.66 135.845Z" fill="#F9C22E"/>
<path d="M59.35 1072.67C59.35 1015.61 105.61 969.35 162.67 969.35" stroke="white" stroke-miterlimit="10"/>
<path d="M162.67 1175.99C105.61 1175.99 59.35 1129.73 59.35 1072.67" stroke="white" stroke-width="4" stroke-miterlimit="10"/>
<path d="M59.35 1072.67C59.35 1015.61 105.61 969.35 162.67 969.35" stroke="white" stroke-miterlimit="10"/>
<path d="M162.67 1175.99C105.61 1175.99 59.35 1129.73 59.35 1072.67" stroke="white" stroke-width="4" stroke-miterlimit="10"/>
<path d="M49.81 1072.67C49.81 1010.34 100.34 959.81 162.67 959.81" stroke="white" stroke-miterlimit="10"/>
<path d="M162.67 1185.53C100.34 1185.53 49.81 1135 49.81 1072.67" stroke="white" stroke-width="4" stroke-miterlimit="10"/>
<path d="M49.81 1072.67C49.81 1010.34 100.34 959.81 162.67 959.81" stroke="white" stroke-miterlimit="10"/>
<path d="M162.67 1185.53C100.34 1185.53 49.81 1135 49.81 1072.67" stroke="white" stroke-width="4" stroke-miterlimit="10"/>
<path d="M40.31 1072.67C40.31 1005.09 95.09 950.31 162.67 950.31" stroke="white" stroke-miterlimit="10"/>
<path d="M162.67 1195.03C95.09 1195.03 40.31 1140.25 40.31 1072.67" stroke="white" stroke-width="4" stroke-miterlimit="10"/>
<path d="M30 1072.67C30 999.4 89.4 940 162.67 940" stroke="white" stroke-miterlimit="10"/>
<path d="M162.67 1205.34C89.4 1205.34 30 1145.94 30 1072.67" stroke="white" stroke-width="4" stroke-miterlimit="10"/>
<path d="M854.556 131.138C856.2 131.138 857.923 131.053 859.567 130.968C860.272 130.968 860.898 130.883 861.603 130.883C864.578 130.714 867.553 130.544 870.528 130.375C874.13 130.205 877.653 129.951 881.255 129.781C886.344 129.442 891.433 129.188 896.522 128.849C897.696 128.764 898.871 128.764 900.045 128.679C903.02 128.51 905.995 128.34 908.971 128.256C911.946 128.086 914.921 127.916 917.896 127.832C919.071 127.747 920.245 127.662 921.419 127.662C926.117 127.493 930.893 127.323 935.591 127.154C938.488 127.069 941.384 126.984 944.36 126.815C945.534 126.815 946.63 126.73 947.805 126.73C952.346 126.645 956.965 126.56 961.506 126.475C966.047 126.391 970.51 126.306 975.051 126.221C976.225 126.221 977.4 126.221 978.652 126.221C981.628 126.221 984.524 126.221 987.5 126.221C992.119 126.221 996.66 126.221 1001.28 126.136C1002.77 126.136 1004.25 126.136 1005.74 126.136C1008.87 126.136 1012.01 126.136 1015.14 126.136C1015.37 126.136 1015.69 126.136 1015.92 126.136C1008.87 126.221 1001.75 126.306 994.703 126.475C991.728 126.56 988.831 126.56 985.855 126.645C984.603 126.645 983.272 126.645 982.019 126.73C977.713 126.815 973.485 126.984 969.179 127.069C964.246 127.238 959.314 127.323 954.381 127.493C953.52 127.493 952.737 127.577 951.876 127.577C949.214 127.747 946.63 127.832 943.968 128.001C938.644 128.256 933.32 128.51 927.996 128.764C927.213 128.764 926.43 128.849 925.647 128.934C923.064 129.103 920.402 129.358 917.818 129.527C913.12 129.866 908.501 130.205 903.803 130.544C902.551 130.629 901.22 130.799 899.967 130.883C896.992 131.138 894.016 131.392 891.041 131.731C887.283 132.07 883.447 132.409 879.689 132.748C874.443 133.257 869.119 133.765 863.873 134.274C862.621 134.359 861.368 134.528 860.037 134.613C857.766 134.867 855.496 135.122 853.225 135.376C852.99 135.376 852.755 135.545 852.755 135.885C852.755 136.139 852.99 136.393 853.225 136.393C854.086 136.393 854.869 136.478 855.731 136.478C855.574 136.902 855.496 137.156 855.496 137.41C855.496 138.343 856.2 139.19 857.14 139.19C863.638 138.767 870.058 138.258 876.557 137.919C882.194 137.665 887.831 137.326 893.468 137.071C899.654 136.732 905.917 136.393 912.102 136.139C914.06 136.054 916.017 135.969 917.974 135.8C918.523 135.8 919.071 135.715 919.697 135.715C929.719 135.461 939.74 135.122 949.762 134.867C955.086 134.698 960.488 134.528 965.812 134.444C967.77 134.359 969.649 134.359 971.606 134.274C981.862 134.104 992.119 133.935 1002.38 133.765C1006.76 133.681 1011.14 133.596 1015.53 133.511C1019.29 133.426 1023.05 133.426 1026.8 133.257C1029.94 133.172 1032.99 133.002 1036.12 132.918C1037.69 132.833 1039.25 132.833 1040.74 132.748C1044.26 132.494 1047.79 132.24 1051.31 131.985C1051.07 132.324 1051.07 132.833 1051.15 133.172C1051.23 133.596 1051.47 133.935 1051.86 134.104C1052.17 134.274 1052.64 134.444 1052.95 134.274C1053.74 133.935 1054.52 133.596 1055.22 133.257C1055.22 133.257 1055.22 133.257 1055.15 133.257C1055.22 133.257 1055.22 133.172 1055.3 133.172C1055.38 133.172 1055.46 133.087 1055.46 133.087H1055.38C1055.77 132.918 1056.16 132.748 1056.63 132.494C1057.02 132.324 1057.49 132.07 1057.89 131.901C1058.36 131.646 1058.75 131.392 1059.22 131.138C1059.69 130.883 1060 130.205 1060 129.612C1060 129.273 1059.92 129.018 1059.77 128.679C1059.61 128.34 1059.22 127.916 1058.83 127.832C1058.43 127.747 1058.04 127.662 1057.65 127.662C1057.57 127.662 1057.49 127.662 1057.42 127.662C1057.18 127.662 1056.87 127.662 1056.63 127.747C1056.01 127.832 1055.46 127.916 1054.83 127.916C1054.36 127.916 1053.89 128.001 1053.35 128.001C1052.01 128.086 1050.76 128.171 1049.43 128.34C1049.12 128.34 1048.73 128.425 1048.41 128.425C1048.57 128.256 1048.65 128.086 1048.65 127.916C1048.73 127.747 1048.73 127.577 1048.73 127.408C1048.73 127.323 1048.73 127.154 1048.8 127.069C1048.8 126.899 1048.8 126.73 1048.73 126.645C1048.73 126.645 1048.8 126.645 1048.8 126.56C1049.04 126.391 1049.27 126.221 1049.43 125.882C1049.59 125.628 1049.67 125.289 1049.67 124.95C1049.67 124.611 1049.59 124.356 1049.43 124.017C1049.35 123.932 1049.27 123.763 1049.2 123.678C1048.96 123.424 1048.73 123.339 1048.49 123.254C1048.02 123.085 1047.47 123 1046.92 123C1046.46 123 1046.06 123 1045.59 123C1044.97 123 1044.34 123 1043.71 123C1042.85 123 1041.91 123 1041.05 123C1038.7 123 1036.36 123 1034.01 123C1031.81 123 1029.54 123 1027.35 123C1025.32 123 1023.36 123 1021.32 123C1013.26 123 1005.27 123.085 997.208 123.17C991.179 123.254 985.151 123.339 979.122 123.339C976.46 123.339 973.72 123.424 971.058 123.509C965.029 123.678 959.001 123.763 952.972 123.932C951.249 123.932 949.527 124.017 947.805 124.017C946.787 124.017 945.847 124.102 944.829 124.102C938.879 124.356 932.929 124.611 926.978 124.865C925.178 124.95 923.377 125.034 921.498 125.119C920.48 125.119 919.462 125.204 918.444 125.289C912.494 125.628 906.622 125.967 900.671 126.306C897.618 126.475 894.565 126.645 891.511 126.899C886.265 127.238 881.02 127.577 875.852 128.001C871.311 128.34 866.77 128.595 862.229 128.849C861.524 128.934 860.82 128.934 860.037 129.018C858.862 129.103 857.688 129.103 856.514 129.188C855.496 129.527 854.4 129.527 853.382 129.527C853.304 129.188 852.99 128.934 852.755 129.018C852.051 129.018 851.424 129.103 850.72 129.188C850.407 129.273 850.093 129.442 850.015 129.781C849.937 130.205 850.172 130.629 850.485 130.714C850.798 130.799 851.111 130.883 851.424 130.968C851.738 131.053 851.973 131.053 852.286 131.053C853.069 131.138 853.773 131.138 854.556 131.138ZM1037.76 128.425C1038.7 128.425 1039.72 128.425 1040.66 128.425C1040.74 128.679 1040.9 128.849 1041.05 129.018C1040.66 129.018 1040.27 129.103 1039.96 129.103C1039.25 129.103 1038.55 129.188 1037.84 129.188C1034.71 129.273 1031.66 129.442 1028.53 129.527C1027.12 129.612 1025.71 129.697 1024.3 129.697C1022.11 129.697 1019.84 129.781 1017.64 129.781C1012.55 129.866 1007.54 129.951 1002.45 130.036C992.589 130.205 982.802 130.375 972.937 130.544C965.89 130.629 958.844 130.883 951.798 131.138C941.228 131.477 930.58 131.731 920.01 132.07C917.896 132.155 915.782 132.24 913.668 132.409C907.64 132.748 901.611 133.002 895.582 133.342C889.71 133.681 883.76 133.935 877.888 134.274C877.34 134.274 876.792 134.359 876.244 134.359C877.81 134.189 879.454 134.104 881.02 133.935C886.579 133.511 892.137 133.002 897.696 132.579C899.654 132.409 901.611 132.24 903.49 132.07C904.508 131.985 905.526 131.901 906.465 131.901C912.337 131.561 918.131 131.138 923.925 130.799C925.021 130.714 926.195 130.629 927.291 130.544C928.936 130.459 930.58 130.375 932.146 130.375C938.096 130.12 944.046 129.866 949.997 129.612C951.328 129.527 952.659 129.527 953.911 129.442C954.225 129.442 954.616 129.442 954.929 129.442C955.869 129.442 956.808 129.442 957.67 129.358C963.62 129.188 969.649 129.103 975.599 128.934C978.339 128.849 981.08 128.764 983.82 128.764C992.667 128.679 1001.59 128.595 1010.44 128.51C1019.68 128.51 1028.76 128.425 1037.76 128.425Z" fill="white"/>
<path d="M866.286 143C866.522 143 866.714 142.787 866.714 142.524C866.714 142.261 866.522 142.048 866.286 142.048C866.049 142.048 865.857 142.261 865.857 142.524C865.857 142.787 866.049 143 866.286 143Z" fill="white"/>
<g clip-path="url(#clip1_0_1)">
<path d="M875.025 614.402C884.464 604.342 921.199 590.077 935.192 591.059C934.114 592.061 933.389 592.853 932.471 593.52C930.864 594.839 929.203 596.069 927.649 597.475C926.359 598.723 926.179 600.027 927.164 600.875C928.307 601.988 929.33 601.497 930.425 600.724C934.664 597.596 938.938 594.328 943.159 590.971C945.12 589.442 944.842 587.573 942.625 586.264C941.71 585.734 940.582 585.449 939.667 584.919C933.488 581.786 927.45 578.689 921.412 575.592C920.884 575.309 920.392 574.885 919.934 574.919C919.017 574.987 917.783 575.126 917.411 575.706C916.951 576.34 917.001 577.626 917.422 578.332C917.896 579.126 918.811 579.657 919.638 580.24C922.19 581.709 924.866 582.983 927.418 584.451C928.14 584.858 928.773 585.318 929.741 585.937C929.07 586.217 928.805 586.375 928.576 586.392C908.386 589.468 890.35 597.958 873.47 608.988C870.963 610.604 868.667 612.573 866.705 614.701C864.283 617.463 861.439 619.518 858.245 621.186C851.996 624.555 846.609 628.967 842.487 634.897C840.151 638.205 838.397 641.884 837.452 645.918C835.507 655.095 838.202 662.82 845.466 668.774C851.253 673.457 858.192 675.657 865.523 676.307C879.445 677.571 892.216 673.898 903.905 666.205C904.788 665.678 905.424 664.939 906.113 664.289C907.067 663.48 907.316 662.494 906.544 661.4C905.771 660.305 904.678 660.479 903.707 661.059C903.177 661.375 902.612 661.832 902.082 662.148C893.042 668.261 882.934 671.182 872.092 671.669C866.117 671.885 860.285 670.939 854.721 668.636C851.146 667.06 847.908 665.044 845.466 661.954C841.443 656.817 840.594 650.982 842.725 644.925C845.283 637.176 850.691 631.796 857.807 627.071C857.751 628.181 857.714 628.921 857.624 629.573C857.57 630.083 857.427 630.647 857.285 631.211C855.747 639.666 858.83 647.039 866.081 651.566C867.77 652.592 869.548 653.565 871.344 654.168C886.79 659.189 900.512 655.906 912.349 645.252C917.614 640.435 919.781 634.237 917.631 627.024C916.216 622.245 912.928 618.943 908.651 616.59C904.761 614.484 900.533 613.418 896.075 612.967C890.083 612.355 884.036 612.853 878.076 613.898C877.123 614.107 876.207 614.175 875.025 614.402ZM903.514 646.696C896.719 650.153 888.659 652.091 881.522 651.565C877.028 651.255 872.659 650.153 868.788 647.678C863.262 644.035 860.949 638.955 862.217 632.455C862.753 629.742 864.029 627.066 865.269 624.531C865.836 623.475 867.055 622.509 868.078 622.017C878.153 618.039 888.487 616.299 899.198 618.402C902.052 618.972 904.905 620.141 907.316 621.574C914.127 625.765 915.482 633.452 910.548 639.627C908.673 642.301 905.918 644.304 903.514 646.696Z" fill="white"/>
</g>
<path d="M491.526 1539.75C517.803 1539.2 546.985 1537.21 575.662 1531.25C584.631 1529.37 593.348 1527.16 601.56 1523.52C605.223 1521.86 608.887 1519.99 612.171 1517.78C614.572 1516.12 616.593 1513.91 618.109 1511.59C621.773 1506.07 620.762 1500.44 615.203 1496.35C611.919 1493.93 608.255 1491.94 604.339 1490.28C593.222 1485.42 581.347 1482.22 569.345 1479.68C559.365 1477.58 549.133 1476.7 538.9 1476.15C537.637 1476.04 536.373 1476.15 535.363 1475.71C534.478 1475.37 533.468 1474.38 533.468 1473.72C533.594 1472.83 534.605 1471.95 535.489 1471.51C536.373 1471.07 537.637 1471.29 538.647 1471.29C555.323 1471.18 571.367 1474.05 586.905 1478.8C594.485 1481.12 601.939 1483.88 609.266 1486.86C613.056 1488.4 616.719 1490.72 619.751 1493.26C626.32 1498.67 627.71 1505.85 623.92 1513.03C622.025 1516.78 618.993 1519.76 615.456 1522.3C609.013 1526.83 601.686 1529.7 594.106 1532.02C579.326 1536.55 564.04 1539.2 548.501 1541.08C530.057 1543.4 511.612 1544.61 492.916 1544.94C470.681 1545.27 448.447 1544.28 426.718 1539.75C418.002 1537.98 409.664 1535.33 401.958 1531.36C396.904 1528.71 392.357 1525.73 388.819 1521.53C383.134 1514.8 382.503 1507.73 386.798 1500.22C389.198 1496.02 392.609 1492.6 396.525 1489.51C406.885 1481.34 419.012 1475.82 431.898 1471.4C448.7 1465.66 466.26 1462.57 484.072 1460.69C506.938 1458.26 529.804 1458.59 552.67 1460.8C572.377 1462.68 591.832 1465.88 610.529 1472.06C612.929 1472.83 615.203 1473.83 617.477 1474.82C619.12 1475.48 620.13 1476.48 619.499 1478.13C618.993 1479.35 617.351 1479.79 615.33 1478.91C603.581 1474.27 591.074 1471.95 578.568 1469.63C563.913 1466.98 549.006 1465.55 534.099 1464.66C507.57 1463.23 481.293 1464.99 455.522 1470.52C441.625 1473.28 428.234 1477.58 415.728 1483.88C409.285 1487.08 403.221 1490.83 398.041 1495.58C396.146 1497.35 394.378 1499.34 392.862 1501.43C388.314 1507.95 389.072 1514.46 395.136 1519.88C398.168 1522.64 401.831 1524.95 405.621 1527.05C413.959 1531.58 423.308 1533.9 432.909 1535.56C451.1 1538.76 469.671 1539.86 491.526 1539.75Z" fill="black"/>
<path d="M173.741 3817.02C147.866 3789.28 133.784 3751.51 131.024 3707.15C129.858 3688.43 130.33 3669.23 124.443 3651.49C118.555 3633.75 104.331 3617.33 86.134 3616C63.7912 3614.37 45.6812 3635.55 38.0091 3657.23C21.8774 3702.82 19.3181 3757.09 51.0876 3796.74C75.8264 3827.6 115.435 3844.79 136.926 3878C157.73 3910.15 158.649 3953.16 183.462 3982.33C196.541 3997.69 215.042 4007.54 234.067 4014.26C261.012 4023.79 290.777 4027.67 318.234 4019.73C345.681 4011.79 370.202 3990.55 377.049 3962.81C394.991 3890.07 301.521 3873.08 252.604 3861.19C219.477 3853.16 193.255 3837.94 173.741 3817.02Z" fill="#69779B"/>
</g>
<defs>
<filter id="filter0_d_0_1" x="364.453" y="1852.79" width="245.226" height="298.334" filterUnits="userSpaceOnUse" color-interpolation-filters="sRGB">
<feFlood flood-opacity="0" result="BackgroundImageFix"/>
<feColorMatrix in="SourceAlpha" type="matrix" values="0 0 0 0 0 0 0 0 0 0 0 0 0 0 0 0 0 0 127 0" result="hardAlpha"/>
<feOffset dy="4"/>
<feGaussianBlur stdDeviation="2"/>
<feComposite in2="hardAlpha" operator="out"/>
<feColorMatrix type="matrix" values="0 0 0 0 0 0 0 0 0 0 0 0 0 0 0 0 0 0 0.25 0"/>
<feBlend mode="normal" in2="BackgroundImageFix" result="effect1_dropShadow_0_1"/>
<feBlend mode="normal" in="SourceGraphic" in2="effect1_dropShadow_0_1" result="shape"/>
</filter>
<clipPath id="clip0_0_1">
<rect width="1920" height="5400" fill="white"/>
</clipPath>
<clipPath id="clip1_0_1">
<rect width="127.885" height="70.9556" fill="white" transform="matrix(-0.858712 0.512458 0.512458 0.858712 931.817 567)"/>
</clipPath>
</defs>
</svg>
